<?xml version="1.0" encoding="UTF-8" standalone="no"?>
<!-- Created with Inkscape (http://www.inkscape.org/) -->

<svg
   width="1130"
   height="160"
   viewBox="0 0 298.97916 42.333332"
   version="1.1"
   id="svg68358"
   inkscape:version="1.3.2 (091e20e, 2023-11-25, custom)"
   sodipodi:docname="DTportfolio_header.svg"
   inkscape:export-filename="C:\Users\MDT\Desktop\DTportfolio_header1.png"
   inkscape:export-xdpi="96"
   inkscape:export-ydpi="96"
   xmlns:inkscape="http://www.inkscape.org/namespaces/inkscape"
   xmlns:sodipodi="http://sodipodi.sourceforge.net/DTD/sodipodi-0.dtd"
   xmlns="http://www.w3.org/2000/svg"
   xmlns:svg="http://www.w3.org/2000/svg">
  <sodipodi:namedview
     id="namedview68360"
     pagecolor="#ffffff"
     bordercolor="#666666"
     borderopacity="1.0"
     inkscape:pageshadow="2"
     inkscape:pageopacity="0.0"
     inkscape:pagecheckerboard="0"
     inkscape:document-units="mm"
     showgrid="false"
     units="px"
     inkscape:zoom="0.90583672"
     inkscape:cx="590.06219"
     inkscape:cy="180.49611"
     inkscape:window-width="1920"
     inkscape:window-height="1001"
     inkscape:window-x="-9"
     inkscape:window-y="-9"
     inkscape:window-maximized="1"
     inkscape:current-layer="layer3"
     inkscape:showpageshadow="2"
     inkscape:deskcolor="#d1d1d1" />
  <defs
     id="defs68355">
    <filter
       inkscape:collect="always"
       style="color-interpolation-filters:sRGB"
       id="filter117757"
       x="-0.17154062"
       y="-0.31390039"
       width="1.3430812"
       height="1.6278008">
      <feGaussianBlur
         inkscape:collect="always"
         stdDeviation="6.6509686"
         id="feGaussianBlur117759" />
    </filter>
    <filter
       inkscape:collect="always"
       style="color-interpolation-filters:sRGB"
       id="filter117733"
       x="-0.023046619"
       y="-0.068017874"
       width="1.0460932"
       height="1.1360357">
      <feGaussianBlur
         inkscape:collect="always"
         stdDeviation="6.0118141"
         id="feGaussianBlur117735" />
    </filter>
    <filter
       inkscape:collect="always"
       style="color-interpolation-filters:sRGB"
       id="filter117709"
       x="-0.030452967"
       y="-0.092624536"
       width="1.0609059"
       height="1.1852491">
      <feGaussianBlur
         inkscape:collect="always"
         stdDeviation="7.9437933"
         id="feGaussianBlur117711" />
    </filter>
    <filter
       inkscape:collect="always"
       style="color-interpolation-filters:sRGB"
       id="filter117685"
       x="-0.018076041"
       y="-0.044945137"
       width="1.0361521"
       height="1.0898903">
      <feGaussianBlur
         inkscape:collect="always"
         stdDeviation="4.7152166"
         id="feGaussianBlur117687" />
    </filter>
    <filter
       inkscape:collect="always"
       style="color-interpolation-filters:sRGB"
       id="filter117661"
       x="-0.032854125"
       y="-0.075779279"
       width="1.0657082"
       height="1.1515586">
      <feGaussianBlur
         inkscape:collect="always"
         stdDeviation="8.119739"
         id="feGaussianBlur117663" />
    </filter>
    <filter
       inkscape:collect="always"
       style="color-interpolation-filters:sRGB"
       id="filter117637"
       x="-0.044424163"
       y="-0.16193793"
       width="1.0888483"
       height="1.3238759">
      <feGaussianBlur
         inkscape:collect="always"
         stdDeviation="11.588243"
         id="feGaussianBlur117639" />
    </filter>
    <filter
       style="color-interpolation-filters:sRGB"
       inkscape:label="Drop Shadow"
       id="filter163091"
       x="-0.018355187"
       y="-0.083874629"
       width="1.0500135"
       height="1.1938017">
      <feFlood
         flood-opacity="0.498039"
         flood-color="rgb(0,0,0)"
         result="flood"
         id="feFlood163081" />
      <feComposite
         in="flood"
         in2="SourceGraphic"
         operator="in"
         result="composite1"
         id="feComposite163083" />
      <feGaussianBlur
         in="composite1"
         stdDeviation="0.607903"
         result="blur"
         id="feGaussianBlur163085" />
      <feOffset
         dx="1.0574"
         dy="0.453172"
         result="offset"
         id="feOffset163087" />
      <feComposite
         in="SourceGraphic"
         in2="offset"
         operator="over"
         result="fbSourceGraphic"
         id="feComposite163089" />
      <feColorMatrix
         result="fbSourceGraphicAlpha"
         in="fbSourceGraphic"
         values="0 0 0 -1 0 0 0 0 -1 0 0 0 0 -1 0 0 0 0 1 0"
         id="feColorMatrix163111" />
      <feFlood
         id="feFlood163113"
         flood-opacity="0.498039"
         flood-color="rgb(0,0,0)"
         result="flood"
         in="fbSourceGraphic" />
      <feComposite
         in2="fbSourceGraphic"
         id="feComposite163115"
         in="flood"
         operator="in"
         result="composite1" />
      <feGaussianBlur
         id="feGaussianBlur163117"
         in="composite1"
         stdDeviation="0.607903"
         result="blur" />
      <feOffset
         id="feOffset163119"
         dx="1.0574"
         dy="0.453172"
         result="offset" />
      <feComposite
         in2="offset"
         id="feComposite163121"
         in="fbSourceGraphic"
         operator="over"
         result="composite2" />
    </filter>
    <filter
       style="color-interpolation-filters:sRGB"
       inkscape:label="Drop Shadow"
       id="filter163871"
       x="-0.0031511094"
       y="-0.023763045"
       width="1.012867"
       height="1.0871312">
      <feFlood
         flood-opacity="0.498039"
         flood-color="rgb(0,0,0)"
         result="flood"
         id="feFlood163861" />
      <feComposite
         in="flood"
         in2="SourceGraphic"
         operator="in"
         result="composite1"
         id="feComposite163863" />
      <feGaussianBlur
         in="composite1"
         stdDeviation="0.1"
         result="blur"
         id="feGaussianBlur163865" />
      <feOffset
         dx="0.5"
         dy="0.4"
         result="offset"
         id="feOffset163867" />
      <feComposite
         in="SourceGraphic"
         in2="offset"
         operator="over"
         result="composite2"
         id="feComposite163869" />
    </filter>
  </defs>
  <g
     inkscape:label="Layer 1"
     inkscape:groupmode="layer"
     id="layer1">
    <g
       id="g117774"
       transform="matrix(1.8193005,0,0,0.26774535,-44.302476,-19.623265)">
      <path
         id="path72863"
         style="opacity:1;fill:#b8f2e6;fill-opacity:1;stroke-width:1.88976"
         d="m 88.990234,271.65234 v 58.70313 43.16601 c 1.818703,0.74519 3.648637,1.46488 5.492188,2.14649 1.949119,0.72064 3.912473,1.40568 5.886718,2.05469 1.97425,0.649 3.96038,1.26109 5.95703,1.83789 1.99665,0.57679 4.0032,1.11708 6.01953,1.62109 2.01634,0.50401 4.04288,0.9717 6.07618,1.40234 2.03328,0.43065 4.07356,0.82495 6.12109,1.18164 2.04753,0.35671 4.10112,0.6768 6.16015,0.95899 2.05905,0.28219 4.12357,0.52728 6.19141,0.73437 2.06784,0.2071 4.13898,0.37639 6.21289,0.50782 2.07391,0.13143 4.15126,0.22411 6.22852,0.27929 2.07726,0.0552 4.15453,0.0724 6.23242,0.0508 2.07789,-0.0216 4.15468,-0.0826 6.23047,-0.18165 2.07579,-0.099 4.15168,-0.23704 6.22265,-0.41406 2.64478,-0.22606 5.27751,-0.51122 7.89844,-0.85547 2.62094,-0.34425 5.22829,-0.74621 7.82617,-1.20117 2.59789,-0.45495 5.1861,-0.96331 7.76172,-1.52148 2.57563,-0.55818 5.13921,-1.16641 7.69336,-1.82032 2.55416,-0.6539 5.09739,-1.35355 7.63086,-2.0957 2.53348,-0.74215 5.05673,-1.5267 7.57031,-2.34961 2.51359,-0.82291 5.01919,-1.6839 7.51368,-2.58008 2.49448,-0.89618 4.97891,-1.82709 7.45507,-2.78906 2.47617,-0.96196 4.9437,-1.9563 7.40235,-2.97656 2.45864,-1.02027 4.90769,-2.06759 7.34961,-3.13867 2.44191,-1.07108 4.87676,-2.1649 7.30273,-3.2793 2.42597,-1.1144 4.84309,-2.24819 7.25391,-3.39844 4.82163,-2.30049 9.61511,-4.66552 14.38086,-7.06445 4.76574,-2.39893 9.50452,-4.83205 14.2207,-7.26953 3.24692,-1.67812 6.50593,-3.36263 9.76367,-5.04492 1.47416,-0.76126 2.94102,-1.52394 4.41797,-2.28321 4.74087,-2.43718 9.49787,-4.85798 14.27539,-7.23632 4.77752,-2.37836 9.57621,-4.71361 14.40234,-6.97461 2.41308,-1.1305 4.8323,-2.24185 7.25977,-3.33204 2.42747,-1.09018 4.86327,-2.15861 7.30664,-3.20117 2.44337,-1.04256 4.89471,-2.05925 7.35547,-3.04687 2.46076,-0.98762 4.93051,-1.94574 7.41016,-2.8711 2.47964,-0.92535 4.96872,-1.81804 7.46875,-2.67382 2.50002,-0.85579 5.01129,-1.67619 7.5332,-2.45508 2.52191,-0.7789 5.05433,-1.51625 7.59961,-2.21094 2.54528,-0.69469 5.10367,-1.34605 7.67383,-1.94922 2.57015,-0.60316 5.15348,-1.15778 7.75,-1.66211 2.59652,-0.50432 5.2057,-0.95729 7.83007,-1.35547 2.19994,-0.33377 4.40322,-0.62939 6.60938,-0.88476 2.20616,-0.25538 4.41579,-0.47237 6.62695,-0.65235 2.21116,-0.17997 4.42374,-0.32211 6.63867,-0.42968 2.21495,-0.10757 4.43289,-0.18059 6.6504,-0.21875 2.21751,-0.0382 4.43543,-0.0419 6.65429,-0.0137 2.21886,0.0283 4.43727,0.09 6.65625,0.18165 2.21899,0.0916 4.43836,0.21316 6.65625,0.36523 2.2179,0.15207 4.43481,0.33348 6.65039,0.54297 2.21559,0.20949 4.43052,0.44702 6.64258,0.71094 2.21206,0.26391 4.42159,0.55576 6.62891,0.87109 2.20731,0.31533 4.41193,0.65382 6.61328,1.01758 2.20135,0.36376 4.39958,0.75097 6.59375,1.16015 2.19417,0.40919 4.38454,0.84136 6.57031,1.29297 2.18577,0.45162 4.36682,0.92302 6.54297,1.41407 4.35229,0.98208 8.68373,2.04026 12.99023,3.1621 4.30651,1.12185 8.59497,2.30659 12.86719,3.54297 4.27222,1.23638 8.52872,2.52514 12.77344,3.85352 4.24471,1.32838 8.47719,2.69591 12.70117,4.09375 4.22398,1.39784 8.43842,2.82477 12.64844,4.26953 8.42004,2.88953 16.81976,5.85096 25.22461,8.79297 4.20242,1.471 8.40645,2.93836 12.61523,4.38867 4.20879,1.45032 8.42261,2.88392 12.64453,4.29102 3.1454,1.0483 6.30569,2.05013 9.46094,3.06836 3.58817,-0.59585 7.17197,-1.22295 10.7461,-1.89454 3.75081,-0.70478 7.49212,-1.45238 11.22656,-2.24414 3.73444,-0.79175 7.46061,-1.62739 11.17773,-2.50976 3.71712,-0.88237 7.42614,-1.81048 11.125,-2.78711 3.69886,-0.97663 7.3887,-2.00163 11.06836,-3.07617 3.67967,-1.07454 7.34828,-2.19891 11.00781,-3.375 3.65953,-1.1761 7.30881,-2.40425 10.94727,-3.68555 2.18329,-0.76886 4.36147,-1.55516 6.53125,-2.36133 2.16977,-0.80616 4.33262,-1.63145 6.48828,-2.47461 0.9147,-0.35777 1.82229,-0.7313 2.73438,-1.0957 v -44.72852 z"
         transform="scale(0.26458333)" />
      <path
         id="path117737"
         style="opacity:1;fill:#000000;fill-opacity:1;stroke-width:1.88976;filter:url(#filter117757)"
         d="m 715.04102,316.38086 c -0.91209,0.3644 -1.81968,0.73793 -2.73438,1.0957 -2.15566,0.84316 -4.31851,1.66845 -6.48828,2.47461 -2.16978,0.80617 -4.34796,1.59247 -6.53125,2.36133 -3.63846,1.2813 -7.28774,2.50945 -10.94727,3.68555 -3.65953,1.17609 -7.32814,2.30046 -11.00781,3.375 -3.67966,1.07454 -7.3695,2.09954 -11.06836,3.07617 -3.69886,0.97663 -7.40788,1.90474 -11.125,2.78711 -3.71712,0.88237 -7.44329,1.71801 -11.17773,2.50976 -3.73444,0.79176 -7.47574,1.53936 -11.22656,2.24414 -3.57413,0.67159 -7.15793,1.29869 -10.7461,1.89454 2.20357,0.7111 4.39917,1.44617 6.60742,2.14257 5.37023,1.69359 10.75344,3.3448 16.15039,4.95118 5.39696,1.60637 10.80822,3.1687 16.23047,4.6875 5.42226,1.51879 10.85661,2.99299 16.30274,4.42382 5.44612,1.43084 10.90252,2.81766 16.37109,4.16016 5.46857,1.3425 10.94791,2.64074 16.4375,3.89453 1.64785,0.37636 3.30346,0.71955 4.95313,1.08789 z"
         transform="scale(0.26458333)" />
      <path
         id="path72849"
         style="opacity:1;fill:#faf3dd;fill-opacity:1;stroke-width:1.88976"
         d="m 715.04102,316.38086 c -0.91209,0.3644 -1.81968,0.73793 -2.73438,1.0957 -2.15566,0.84316 -4.31851,1.66845 -6.48828,2.47461 -2.16978,0.80617 -4.34796,1.59247 -6.53125,2.36133 -3.63846,1.2813 -7.28774,2.50945 -10.94727,3.68555 -3.65953,1.17609 -7.32814,2.30046 -11.00781,3.375 -3.67966,1.07454 -7.3695,2.09954 -11.06836,3.07617 -3.69886,0.97663 -7.40788,1.90474 -11.125,2.78711 -3.71712,0.88237 -7.44329,1.71801 -11.17773,2.50976 -3.73444,0.79176 -7.47574,1.53936 -11.22656,2.24414 -3.57413,0.67159 -7.15793,1.29869 -10.7461,1.89454 2.20357,0.7111 4.39917,1.44617 6.60742,2.14257 5.37023,1.69359 10.75344,3.3448 16.15039,4.95118 5.39696,1.60637 10.80822,3.1687 16.23047,4.6875 5.42226,1.51879 10.85661,2.99299 16.30274,4.42382 5.44612,1.43084 10.90252,2.81766 16.37109,4.16016 5.46857,1.3425 10.94791,2.64074 16.4375,3.89453 1.64785,0.37636 3.30346,0.71955 4.95313,1.08789 z"
         transform="scale(0.26458333)" />
      <path
         id="path117713"
         style="opacity:1;fill:#000000;fill-opacity:1;stroke-width:1.88976;filter:url(#filter117733)"
         d="m 438.50781,294.86523 c -2.21886,-0.0282 -4.43678,-0.0245 -6.65429,0.0137 -2.21751,0.0382 -4.43545,0.11118 -6.6504,0.21875 -2.21493,0.10757 -4.42751,0.24971 -6.63867,0.42968 -2.21116,0.17998 -4.42079,0.39697 -6.62695,0.65235 -2.20616,0.25537 -4.40944,0.55099 -6.60938,0.88476 -2.62437,0.39818 -5.23355,0.85115 -7.83007,1.35547 -2.59652,0.50433 -5.17985,1.05895 -7.75,1.66211 -2.57016,0.60317 -5.12855,1.25453 -7.67383,1.94922 -2.54528,0.69469 -5.0777,1.43204 -7.59961,2.21094 -2.52191,0.77889 -5.03318,1.59929 -7.5332,2.45508 -2.50003,0.85578 -4.98911,1.74847 -7.46875,2.67382 -2.47965,0.92536 -4.9494,1.88348 -7.41016,2.8711 -2.46076,0.98762 -4.9121,2.00431 -7.35547,3.04687 -2.44337,1.04256 -4.87917,2.11099 -7.30664,3.20117 -2.42747,1.09019 -4.84669,2.20154 -7.25977,3.33204 -4.82613,2.261 -9.62482,4.59625 -14.40234,6.97461 -4.77752,2.37834 -9.53452,4.79914 -14.27539,7.23632 -1.47695,0.75927 -2.94381,1.52195 -4.41797,2.28321 -3.25774,1.68229 -6.51675,3.3668 -9.76367,5.04492 -4.71618,2.43748 -9.45496,4.8706 -14.2207,7.26953 -4.76575,2.39893 -9.55923,4.76396 -14.38086,7.06445 -2.41082,1.15025 -4.82794,2.28404 -7.25391,3.39844 -2.42597,1.1144 -4.86082,2.20822 -7.30273,3.2793 -2.44192,1.07108 -4.89097,2.1184 -7.34961,3.13867 -2.45865,1.02026 -4.92618,2.0146 -7.40235,2.97656 -2.47616,0.96197 -4.96059,1.89288 -7.45507,2.78906 -2.49449,0.89618 -5.00009,1.75717 -7.51368,2.58008 -2.51358,0.82291 -5.03683,1.60746 -7.57031,2.34961 -2.53347,0.74215 -5.0767,1.4418 -7.63086,2.0957 -2.55415,0.65391 -5.11773,1.26214 -7.69336,1.82032 -2.57562,0.55817 -5.16383,1.06653 -7.76172,1.52148 -2.59788,0.45496 -5.20523,0.85692 -7.82617,1.20117 -2.62093,0.34425 -5.25366,0.62941 -7.89844,0.85547 -2.07097,0.17702 -4.14686,0.31503 -6.22265,0.41406 -2.07579,0.099 -4.15258,0.16001 -6.23047,0.18165 -2.07789,0.0216 -4.15516,0.004 -6.23242,-0.0508 -2.07726,-0.0552 -4.15461,-0.14786 -6.22852,-0.27929 -2.07391,-0.13143 -4.14505,-0.30072 -6.21289,-0.50782 -2.06784,-0.20709 -4.13236,-0.45218 -6.19141,-0.73437 -2.05903,-0.28219 -4.11262,-0.60228 -6.16015,-0.95899 -2.04753,-0.35669 -4.08781,-0.75099 -6.12109,-1.18164 -2.0333,-0.43064 -4.05984,-0.89833 -6.07618,-1.40234 -2.01633,-0.50401 -4.02288,-1.0443 -6.01953,-1.62109 -1.99665,-0.5768 -3.98278,-1.18889 -5.95703,-1.83789 -1.974245,-0.64901 -3.937599,-1.33405 -5.886718,-2.05469 -1.843551,-0.68161 -3.673485,-1.4013 -5.492188,-2.14649 v 133.45118 c 0.06054,-0.002 0.121106,-0.002 0.181641,-0.004 3.673959,-0.12478 7.339662,-0.32308 10.996095,-0.58789 3.65643,-0.26481 7.30461,-0.59688 10.94336,-0.99414 3.63875,-0.39727 7.26775,-0.85871 10.88867,-1.38086 3.62092,-0.52215 7.23301,-1.10468 10.83594,-1.74414 3.60293,-0.63946 7.19646,-1.33674 10.78125,-2.08594 3.58479,-0.7492 7.16006,-1.55098 10.72656,-2.40234 3.5665,-0.85137 7.12383,-1.75131 10.67187,-2.69727 3.54806,-0.94596 7.08773,-1.93772 10.61719,-2.9707 3.52947,-1.03298 7.04983,-2.10828 10.56055,-3.2207 3.51072,-1.11243 7.01209,-2.26297 10.50391,-3.44727 3.49181,-1.1843 6.9745,-2.40179 10.44726,-3.65039 3.47277,-1.2486 6.93511,-2.52671 10.38867,-3.83203 3.45357,-1.30533 6.89783,-2.63771 10.33203,-3.99219 3.43421,-1.35448 6.85874,-2.73089 10.27344,-4.12695 6.8294,-2.79213 13.61869,-5.66121 20.36914,-8.57422 6.75045,-2.91301 13.48547,-5.8765 20.21289,-8.86328 6.72743,-2.98678 13.44868,-5.99541 20.17188,-9 6.7232,-3.00459 13.44778,-6.00426 20.18554,-8.97071 6.73778,-2.96644 13.48863,-5.90109 20.25977,-8.77343 3.38557,-1.43617 6.77639,-2.85566 10.17383,-4.25782 3.39743,-1.40215 6.80124,-2.78729 10.21289,-4.14843 3.41165,-1.36114 6.82959,-2.69859 10.25781,-4.01172 3.42822,-1.31314 6.86537,-2.60124 10.3125,-3.85938 3.44713,-1.25813 6.90465,-2.48745 10.37305,-3.68359 3.4684,-1.19614 6.94939,-2.35918 10.44141,-3.48633 3.492,-1.12714 6.99569,-2.21837 10.51367,-3.26953 3.51797,-1.05116 7.04941,-2.06112 10.5957,-3.0293 2.91722,-0.79643 5.83948,-1.56265 8.76758,-2.29882 2.9281,-0.73619 5.86235,-1.44377 8.80078,-2.1211 2.93842,-0.67733 5.88188,-1.32545 8.83008,-1.94531 2.9482,-0.61986 5.9,-1.21161 8.85742,-1.77539 2.95742,-0.56378 5.92063,-1.09833 8.88672,-1.60742 2.96609,-0.50909 5.93595,-0.99148 8.91015,-1.44727 2.97421,-0.45579 5.95182,-0.88519 8.9336,-1.28906 2.98177,-0.40387 5.96824,-0.78338 8.95703,-1.13672 2.98879,-0.35335 5.97936,-0.68212 8.97461,-0.98633 2.99525,-0.30421 5.99494,-0.58339 8.99609,-0.83984 3.00116,-0.25646 6.00521,-0.48913 9.01172,-0.69922 3.00651,-0.2101 6.01408,-0.39738 9.02539,-0.5625 3.01132,-0.16512 6.02545,-0.30815 9.04102,-0.42969 3.01556,-0.12153 6.03347,-0.22144 9.05273,-0.30078 3.01927,-0.0793 6.04009,-0.13725 9.0625,-0.17578 3.02241,-0.0385 6.04726,-0.0575 9.07227,-0.0566 6.05001,0.002 12.10308,0.0813 18.16015,0.23242 6.05707,0.15113 12.11802,0.37274 18.17774,0.66211 6.05971,0.28937 12.11979,0.64599 18.17773,1.0625 6.05794,0.41651 12.11233,0.89325 18.16406,1.42578 6.05175,0.53254 12.0995,1.12036 18.14063,1.75781 6.04113,0.63746 12.07546,1.32537 18.10156,2.05664 6.0261,0.73127 12.04414,1.50634 18.05078,2.32032 6.00665,0.81397 12.00355,1.66715 17.98633,2.55273 1.56276,0.23132 3.1215,0.48695 4.6836,0.72266 v -23.79688 c -1.64967,-0.36834 -3.30528,-0.71153 -4.95313,-1.08789 -5.48959,-1.25379 -10.96893,-2.55203 -16.4375,-3.89453 -5.46857,-1.3425 -10.92497,-2.72932 -16.37109,-4.16016 -5.44613,-1.43083 -10.88048,-2.90503 -16.30274,-4.42382 -5.42225,-1.5188 -10.83351,-3.08113 -16.23047,-4.6875 -5.39695,-1.60638 -10.78016,-3.25759 -16.15039,-4.95118 -2.20825,-0.6964 -4.40385,-1.43147 -6.60742,-2.14257 -3.15525,-1.01823 -6.31554,-2.02006 -9.46094,-3.06836 -4.22192,-1.4071 -8.43574,-2.8407 -12.64453,-4.29102 -4.20878,-1.45031 -8.41281,-2.91767 -12.61523,-4.38867 -8.40485,-2.94201 -16.80457,-5.90344 -25.22461,-8.79297 -4.21002,-1.44476 -8.42446,-2.87169 -12.64844,-4.26953 -4.22398,-1.39784 -8.45646,-2.76537 -12.70117,-4.09375 -4.24472,-1.32838 -8.50122,-2.61714 -12.77344,-3.85352 -4.27222,-1.23638 -8.56068,-2.42112 -12.86719,-3.54297 -4.3065,-1.12184 -8.63794,-2.18002 -12.99023,-3.1621 -2.17615,-0.49105 -4.3572,-0.96245 -6.54297,-1.41407 -2.18577,-0.45161 -4.37614,-0.88378 -6.57031,-1.29297 -2.19417,-0.40918 -4.3924,-0.79639 -6.59375,-1.16015 -2.20135,-0.36376 -4.40597,-0.70225 -6.61328,-1.01758 -2.20732,-0.31533 -4.41685,-0.60718 -6.62891,-0.87109 -2.21206,-0.26392 -4.42699,-0.50145 -6.64258,-0.71094 -2.21558,-0.20949 -4.43249,-0.3909 -6.65039,-0.54297 -2.21789,-0.15207 -4.43726,-0.27359 -6.65625,-0.36523 -2.21898,-0.0917 -4.43739,-0.1534 -6.65625,-0.18165 z"
         transform="scale(0.26458333)" />
      <path
         id="rect71814"
         style="opacity:1;fill:#ffa69e;fill-opacity:1;stroke-width:1.88976"
         d="m 438.50781,294.86523 c -2.21886,-0.0282 -4.43678,-0.0245 -6.65429,0.0137 -2.21751,0.0382 -4.43545,0.11118 -6.6504,0.21875 -2.21493,0.10757 -4.42751,0.24971 -6.63867,0.42968 -2.21116,0.17998 -4.42079,0.39697 -6.62695,0.65235 -2.20616,0.25537 -4.40944,0.55099 -6.60938,0.88476 -2.62437,0.39818 -5.23355,0.85115 -7.83007,1.35547 -2.59652,0.50433 -5.17985,1.05895 -7.75,1.66211 -2.57016,0.60317 -5.12855,1.25453 -7.67383,1.94922 -2.54528,0.69469 -5.0777,1.43204 -7.59961,2.21094 -2.52191,0.77889 -5.03318,1.59929 -7.5332,2.45508 -2.50003,0.85578 -4.98911,1.74847 -7.46875,2.67382 -2.47965,0.92536 -4.9494,1.88348 -7.41016,2.8711 -2.46076,0.98762 -4.9121,2.00431 -7.35547,3.04687 -2.44337,1.04256 -4.87917,2.11099 -7.30664,3.20117 -2.42747,1.09019 -4.84669,2.20154 -7.25977,3.33204 -4.82613,2.261 -9.62482,4.59625 -14.40234,6.97461 -4.77752,2.37834 -9.53452,4.79914 -14.27539,7.23632 -1.47695,0.75927 -2.94381,1.52195 -4.41797,2.28321 -3.25774,1.68229 -6.51675,3.3668 -9.76367,5.04492 -4.71618,2.43748 -9.45496,4.8706 -14.2207,7.26953 -4.76575,2.39893 -9.55923,4.76396 -14.38086,7.06445 -2.41082,1.15025 -4.82794,2.28404 -7.25391,3.39844 -2.42597,1.1144 -4.86082,2.20822 -7.30273,3.2793 -2.44192,1.07108 -4.89097,2.1184 -7.34961,3.13867 -2.45865,1.02026 -4.92618,2.0146 -7.40235,2.97656 -2.47616,0.96197 -4.96059,1.89288 -7.45507,2.78906 -2.49449,0.89618 -5.00009,1.75717 -7.51368,2.58008 -2.51358,0.82291 -5.03683,1.60746 -7.57031,2.34961 -2.53347,0.74215 -5.0767,1.4418 -7.63086,2.0957 -2.55415,0.65391 -5.11773,1.26214 -7.69336,1.82032 -2.57562,0.55817 -5.16383,1.06653 -7.76172,1.52148 -2.59788,0.45496 -5.20523,0.85692 -7.82617,1.20117 -2.62093,0.34425 -5.25366,0.62941 -7.89844,0.85547 -2.07097,0.17702 -4.14686,0.31503 -6.22265,0.41406 -2.07579,0.099 -4.15258,0.16001 -6.23047,0.18165 -2.07789,0.0216 -4.15516,0.004 -6.23242,-0.0508 -2.07726,-0.0552 -4.15461,-0.14786 -6.22852,-0.27929 -2.07391,-0.13143 -4.14505,-0.30072 -6.21289,-0.50782 -2.06784,-0.20709 -4.13236,-0.45218 -6.19141,-0.73437 -2.05903,-0.28219 -4.11262,-0.60228 -6.16015,-0.95899 -2.04753,-0.35669 -4.08781,-0.75099 -6.12109,-1.18164 -2.0333,-0.43064 -4.05984,-0.89833 -6.07618,-1.40234 -2.01633,-0.50401 -4.02288,-1.0443 -6.01953,-1.62109 -1.99665,-0.5768 -3.98278,-1.18889 -5.95703,-1.83789 -1.974245,-0.64901 -3.937599,-1.33405 -5.886718,-2.05469 -1.843551,-0.68161 -3.673485,-1.4013 -5.492188,-2.14649 v 133.45118 c 0.06054,-0.002 0.121106,-0.002 0.181641,-0.004 3.673959,-0.12478 7.339662,-0.32308 10.996095,-0.58789 3.65643,-0.26481 7.30461,-0.59688 10.94336,-0.99414 3.63875,-0.39727 7.26775,-0.85871 10.88867,-1.38086 3.62092,-0.52215 7.23301,-1.10468 10.83594,-1.74414 3.60293,-0.63946 7.19646,-1.33674 10.78125,-2.08594 3.58479,-0.7492 7.16006,-1.55098 10.72656,-2.40234 3.5665,-0.85137 7.12383,-1.75131 10.67187,-2.69727 3.54806,-0.94596 7.08773,-1.93772 10.61719,-2.9707 3.52947,-1.03298 7.04983,-2.10828 10.56055,-3.2207 3.51072,-1.11243 7.01209,-2.26297 10.50391,-3.44727 3.49181,-1.1843 6.9745,-2.40179 10.44726,-3.65039 3.47277,-1.2486 6.93511,-2.52671 10.38867,-3.83203 3.45357,-1.30533 6.89783,-2.63771 10.33203,-3.99219 3.43421,-1.35448 6.85874,-2.73089 10.27344,-4.12695 6.8294,-2.79213 13.61869,-5.66121 20.36914,-8.57422 6.75045,-2.91301 13.48547,-5.8765 20.21289,-8.86328 6.72743,-2.98678 13.44868,-5.99541 20.17188,-9 6.7232,-3.00459 13.44778,-6.00426 20.18554,-8.97071 6.73778,-2.96644 13.48863,-5.90109 20.25977,-8.77343 3.38557,-1.43617 6.77639,-2.85566 10.17383,-4.25782 3.39743,-1.40215 6.80124,-2.78729 10.21289,-4.14843 3.41165,-1.36114 6.82959,-2.69859 10.25781,-4.01172 3.42822,-1.31314 6.86537,-2.60124 10.3125,-3.85938 3.44713,-1.25813 6.90465,-2.48745 10.37305,-3.68359 3.4684,-1.19614 6.94939,-2.35918 10.44141,-3.48633 3.492,-1.12714 6.99569,-2.21837 10.51367,-3.26953 3.51797,-1.05116 7.04941,-2.06112 10.5957,-3.0293 2.91722,-0.79643 5.83948,-1.56265 8.76758,-2.29882 2.9281,-0.73619 5.86235,-1.44377 8.80078,-2.1211 2.93842,-0.67733 5.88188,-1.32545 8.83008,-1.94531 2.9482,-0.61986 5.9,-1.21161 8.85742,-1.77539 2.95742,-0.56378 5.92063,-1.09833 8.88672,-1.60742 2.96609,-0.50909 5.93595,-0.99148 8.91015,-1.44727 2.97421,-0.45579 5.95182,-0.88519 8.9336,-1.28906 2.98177,-0.40387 5.96824,-0.78338 8.95703,-1.13672 2.98879,-0.35335 5.97936,-0.68212 8.97461,-0.98633 2.99525,-0.30421 5.99494,-0.58339 8.99609,-0.83984 3.00116,-0.25646 6.00521,-0.48913 9.01172,-0.69922 3.00651,-0.2101 6.01408,-0.39738 9.02539,-0.5625 3.01132,-0.16512 6.02545,-0.30815 9.04102,-0.42969 3.01556,-0.12153 6.03347,-0.22144 9.05273,-0.30078 3.01927,-0.0793 6.04009,-0.13725 9.0625,-0.17578 3.02241,-0.0385 6.04726,-0.0575 9.07227,-0.0566 6.05001,0.002 12.10308,0.0813 18.16015,0.23242 6.05707,0.15113 12.11802,0.37274 18.17774,0.66211 6.05971,0.28937 12.11979,0.64599 18.17773,1.0625 6.05794,0.41651 12.11233,0.89325 18.16406,1.42578 6.05175,0.53254 12.0995,1.12036 18.14063,1.75781 6.04113,0.63746 12.07546,1.32537 18.10156,2.05664 6.0261,0.73127 12.04414,1.50634 18.05078,2.32032 6.00665,0.81397 12.00355,1.66715 17.98633,2.55273 1.56276,0.23132 3.1215,0.48695 4.6836,0.72266 v -23.79688 c -1.64967,-0.36834 -3.30528,-0.71153 -4.95313,-1.08789 -5.48959,-1.25379 -10.96893,-2.55203 -16.4375,-3.89453 -5.46857,-1.3425 -10.92497,-2.72932 -16.37109,-4.16016 -5.44613,-1.43083 -10.88048,-2.90503 -16.30274,-4.42382 -5.42225,-1.5188 -10.83351,-3.08113 -16.23047,-4.6875 -5.39695,-1.60638 -10.78016,-3.25759 -16.15039,-4.95118 -2.20825,-0.6964 -4.40385,-1.43147 -6.60742,-2.14257 -3.15525,-1.01823 -6.31554,-2.02006 -9.46094,-3.06836 -4.22192,-1.4071 -8.43574,-2.8407 -12.64453,-4.29102 -4.20878,-1.45031 -8.41281,-2.91767 -12.61523,-4.38867 -8.40485,-2.94201 -16.80457,-5.90344 -25.22461,-8.79297 -4.21002,-1.44476 -8.42446,-2.87169 -12.64844,-4.26953 -4.22398,-1.39784 -8.45646,-2.76537 -12.70117,-4.09375 -4.24472,-1.32838 -8.50122,-2.61714 -12.77344,-3.85352 -4.27222,-1.23638 -8.56068,-2.42112 -12.86719,-3.54297 -4.3065,-1.12184 -8.63794,-2.18002 -12.99023,-3.1621 -2.17615,-0.49105 -4.3572,-0.96245 -6.54297,-1.41407 -2.18577,-0.45161 -4.37614,-0.88378 -6.57031,-1.29297 -2.19417,-0.40918 -4.3924,-0.79639 -6.59375,-1.16015 -2.20135,-0.36376 -4.40597,-0.70225 -6.61328,-1.01758 -2.20732,-0.31533 -4.41685,-0.60718 -6.62891,-0.87109 -2.21206,-0.26392 -4.42699,-0.50145 -6.64258,-0.71094 -2.21558,-0.20949 -4.43249,-0.3909 -6.65039,-0.54297 -2.21789,-0.15207 -4.43726,-0.27359 -6.65625,-0.36523 -2.21898,-0.0917 -4.43739,-0.1534 -6.65625,-0.18165 z"
         transform="scale(0.26458333)" />
      <path
         id="path117689"
         style="opacity:1;fill:#000000;fill-opacity:1;stroke-width:1.88976;filter:url(#filter117709)"
         d="m 715.04102,391.0293 c -1.5621,-0.23571 -3.12084,-0.49134 -4.6836,-0.72266 -5.98278,-0.88558 -11.97968,-1.73876 -17.98633,-2.55273 -6.00664,-0.81398 -12.02468,-1.58905 -18.05078,-2.32032 -6.0261,-0.73127 -12.06043,-1.41918 -18.10156,-2.05664 -6.04113,-0.63745 -12.08888,-1.22527 -18.14063,-1.75781 -6.05174,-0.53253 -12.10612,-1.00927 -18.16406,-1.42578 -6.05794,-0.41651 -12.11802,-0.77313 -18.17773,-1.0625 -6.05972,-0.28937 -12.12067,-0.51098 -18.17774,-0.66211 -6.05707,-0.15113 -12.11014,-0.23064 -18.16015,-0.23242 -3.02501,-8.9e-4 -6.04986,0.0181 -9.07227,0.0566 -3.02241,0.0385 -6.04323,0.0964 -9.0625,0.17578 -3.01926,0.0793 -6.03717,0.17925 -9.05273,0.30078 -3.01557,0.12154 -6.0297,0.26457 -9.04102,0.42969 -3.01131,0.16512 -6.01888,0.3524 -9.02539,0.5625 -3.00651,0.21009 -6.01056,0.44276 -9.01172,0.69922 -3.00115,0.25645 -6.00084,0.53563 -8.99609,0.83984 -2.99525,0.30421 -5.98582,0.63298 -8.97461,0.98633 -2.98879,0.35334 -5.97526,0.73285 -8.95703,1.13672 -2.98178,0.40387 -5.95939,0.83327 -8.9336,1.28906 -2.9742,0.45579 -5.94406,0.93818 -8.91015,1.44727 -2.96609,0.50909 -5.9293,1.04364 -8.88672,1.60742 -2.95742,0.56378 -5.90922,1.15553 -8.85742,1.77539 -2.9482,0.61986 -5.89166,1.26798 -8.83008,1.94531 -2.93843,0.67733 -5.87268,1.38491 -8.80078,2.1211 -2.9281,0.73618 -5.85036,1.50239 -8.76758,2.29882 -3.54629,0.96818 -7.07773,1.97814 -10.5957,3.0293 -3.51798,1.05116 -7.02166,2.14239 -10.51367,3.26953 -3.49202,1.12715 -6.97301,2.29019 -10.44141,3.48633 -3.4684,1.19614 -6.92592,2.42546 -10.37305,3.68359 -3.44713,1.25814 -6.88428,2.54624 -10.3125,3.85938 -3.42822,1.31313 -6.84616,2.65058 -10.25781,4.01172 -3.41165,1.36114 -6.81546,2.74628 -10.21289,4.14843 -3.39744,1.40216 -6.78826,2.82165 -10.17383,4.25782 -6.77114,2.87234 -13.52199,5.80699 -20.25977,8.77343 -6.73777,2.96645 -13.46234,5.96612 -20.18554,8.97071 -6.7232,3.00459 -13.44445,6.01322 -20.17188,9 -6.72742,2.98678 -13.46244,5.95027 -20.21289,8.86328 -6.75045,2.91301 -13.53974,5.78209 -20.36914,8.57422 -3.4147,1.39606 -6.83923,2.77247 -10.27344,4.12695 -3.4342,1.35448 -6.87846,2.68686 -10.33203,3.99219 -3.45356,1.30532 -6.9159,2.58343 -10.38867,3.83203 -3.47276,1.2486 -6.95545,2.46609 -10.44726,3.65039 -3.49182,1.1843 -6.99319,2.33484 -10.50391,3.44727 -3.51072,1.11242 -7.03108,2.18772 -10.56055,3.2207 -3.52946,1.03298 -7.06913,2.02474 -10.61719,2.9707 -3.54805,0.94596 -7.10537,1.8459 -10.67187,2.69727 -3.5665,0.85136 -7.14177,1.65314 -10.72656,2.40234 -3.58479,0.7492 -7.17832,1.44648 -10.78125,2.08594 -3.60293,0.63946 -7.21502,1.22199 -10.83594,1.74414 -3.62092,0.52215 -7.24992,0.98359 -10.88867,1.38086 -3.63875,0.39726 -7.28693,0.72933 -10.94336,0.99414 -3.656432,0.26481 -7.322136,0.46311 -10.996095,0.58789 -0.06054,0.002 -0.121105,0.002 -0.181641,0.004 v 27.30273 c 1.808045,0.19597 3.614582,0.39877 5.414063,0.64063 2.218883,0.29822 4.431761,0.62987 6.638673,0.99218 2.20691,0.36232 4.40742,0.75367 6.60351,1.17383 2.1961,0.42016 4.38778,0.86809 6.57422,1.33985 2.18645,0.47175 4.36892,0.96728 6.54688,1.48437 2.17795,0.51709 4.35086,1.05516 6.52148,1.61133 4.34124,1.11233 8.66942,2.29816 12.98828,3.5293 4.31887,1.23113 8.62979,2.50868 12.93555,3.80859 4.30576,1.29991 8.60626,2.62081 12.9082,3.93945 4.30194,1.31865 8.60472,2.63453 12.91211,3.92188 4.3074,1.28735 8.61929,2.54592 12.94141,3.75195 4.76412,1.32936 9.53801,2.5952 14.32031,3.79687 4.7823,1.20168 9.57347,2.33975 14.37305,3.41797 4.79958,1.07823 9.60785,2.09567 14.42383,3.05469 4.81597,0.95902 9.63923,1.85907 14.4707,2.70313 4.83147,0.84406 9.6715,1.63189 14.51758,2.36523 4.84608,0.73334 9.6988,1.4122 14.55859,2.03906 4.85979,0.62687 9.727,1.20194 14.59961,1.72657 4.87261,0.52462 9.75023,0.99914 14.63477,1.42578 4.88454,0.42663 9.77435,0.80579 14.66992,1.13867 4.89557,0.33288 9.79741,0.61991 14.70312,0.86328 4.90572,0.24337 9.81551,0.44346 14.73047,0.60156 4.91496,0.15811 9.8345,0.27449 14.75782,0.35156 4.92331,0.0771 9.85047,0.11495 14.78124,0.11524 4.93078,2.9e-4 9.86539,-0.0371 14.80274,-0.10938 4.93734,-0.0722 9.87729,-0.17976 14.82031,-0.32031 4.94302,-0.14055 9.89009,-0.31492 14.83789,-0.51953 4.94781,-0.2046 9.89792,-0.4387 14.84961,-0.70312 4.95169,-0.26443 9.90469,-0.55892 14.85938,-0.87891 4.95469,-0.32 9.91039,-0.66578 14.86718,-1.03711 4.9568,-0.37133 9.91505,-0.76713 14.87305,-1.18555 4.958,-0.41841 9.91473,-0.85905 14.87305,-1.32031 4.95832,-0.46126 9.91725,-0.94349 14.875,-1.44336 9.91549,-0.99974 19.8285,-2.07246 29.73633,-3.20117 9.90782,-1.12871 19.8101,-2.31337 29.70312,-3.53711 9.89302,-1.22374 19.77737,-2.48664 29.64844,-3.77148 19.74214,-2.56969 39.43344,-5.22744 59.04492,-7.8379 3.98156,-0.52998 7.97929,-1.06396 11.98047,-1.62304 4.00118,-0.55908 8.00555,-1.14326 12.00195,-1.77735 3.99641,-0.63408 7.98394,-1.31727 11.95117,-2.07226 1.98362,-0.37749 3.96185,-0.77313 5.9336,-1.18945 1.97174,-0.41633 3.9377,-0.85356 5.89453,-1.31446 1.33025,-0.31332 2.65048,-0.65409 3.97266,-0.99023 z"
         transform="scale(0.26458333)" />
      <path
         id="path72853"
         style="opacity:1;fill:#302f4d;fill-opacity:1;stroke-width:1.88976"
         d="m 715.04102,391.0293 c -1.5621,-0.23571 -3.12084,-0.49134 -4.6836,-0.72266 -5.98278,-0.88558 -11.97968,-1.73876 -17.98633,-2.55273 -6.00664,-0.81398 -12.02468,-1.58905 -18.05078,-2.32032 -6.0261,-0.73127 -12.06043,-1.41918 -18.10156,-2.05664 -6.04113,-0.63745 -12.08888,-1.22527 -18.14063,-1.75781 -6.05174,-0.53253 -12.10612,-1.00927 -18.16406,-1.42578 -6.05794,-0.41651 -12.11802,-0.77313 -18.17773,-1.0625 -6.05972,-0.28937 -12.12067,-0.51098 -18.17774,-0.66211 -6.05707,-0.15113 -12.11014,-0.23064 -18.16015,-0.23242 -3.02501,-8.9e-4 -6.04986,0.0181 -9.07227,0.0566 -3.02241,0.0385 -6.04323,0.0964 -9.0625,0.17578 -3.01926,0.0793 -6.03717,0.17925 -9.05273,0.30078 -3.01557,0.12154 -6.0297,0.26457 -9.04102,0.42969 -3.01131,0.16512 -6.01888,0.3524 -9.02539,0.5625 -3.00651,0.21009 -6.01056,0.44276 -9.01172,0.69922 -3.00115,0.25645 -6.00084,0.53563 -8.99609,0.83984 -2.99525,0.30421 -5.98582,0.63298 -8.97461,0.98633 -2.98879,0.35334 -5.97526,0.73285 -8.95703,1.13672 -2.98178,0.40387 -5.95939,0.83327 -8.9336,1.28906 -2.9742,0.45579 -5.94406,0.93818 -8.91015,1.44727 -2.96609,0.50909 -5.9293,1.04364 -8.88672,1.60742 -2.95742,0.56378 -5.90922,1.15553 -8.85742,1.77539 -2.9482,0.61986 -5.89166,1.26798 -8.83008,1.94531 -2.93843,0.67733 -5.87268,1.38491 -8.80078,2.1211 -2.9281,0.73618 -5.85036,1.50239 -8.76758,2.29882 -3.54629,0.96818 -7.07773,1.97814 -10.5957,3.0293 -3.51798,1.05116 -7.02166,2.14239 -10.51367,3.26953 -3.49202,1.12715 -6.97301,2.29019 -10.44141,3.48633 -3.4684,1.19614 -6.92592,2.42546 -10.37305,3.68359 -3.44713,1.25814 -6.88428,2.54624 -10.3125,3.85938 -3.42822,1.31313 -6.84616,2.65058 -10.25781,4.01172 -3.41165,1.36114 -6.81546,2.74628 -10.21289,4.14843 -3.39744,1.40216 -6.78826,2.82165 -10.17383,4.25782 -6.77114,2.87234 -13.52199,5.80699 -20.25977,8.77343 -6.73777,2.96645 -13.46234,5.96612 -20.18554,8.97071 -6.7232,3.00459 -13.44445,6.01322 -20.17188,9 -6.72742,2.98678 -13.46244,5.95027 -20.21289,8.86328 -6.75045,2.91301 -13.53974,5.78209 -20.36914,8.57422 -3.4147,1.39606 -6.83923,2.77247 -10.27344,4.12695 -3.4342,1.35448 -6.87846,2.68686 -10.33203,3.99219 -3.45356,1.30532 -6.9159,2.58343 -10.38867,3.83203 -3.47276,1.2486 -6.95545,2.46609 -10.44726,3.65039 -3.49182,1.1843 -6.99319,2.33484 -10.50391,3.44727 -3.51072,1.11242 -7.03108,2.18772 -10.56055,3.2207 -3.52946,1.03298 -7.06913,2.02474 -10.61719,2.9707 -3.54805,0.94596 -7.10537,1.8459 -10.67187,2.69727 -3.5665,0.85136 -7.14177,1.65314 -10.72656,2.40234 -3.58479,0.7492 -7.17832,1.44648 -10.78125,2.08594 -3.60293,0.63946 -7.21502,1.22199 -10.83594,1.74414 -3.62092,0.52215 -7.24992,0.98359 -10.88867,1.38086 -3.63875,0.39726 -7.28693,0.72933 -10.94336,0.99414 -3.656432,0.26481 -7.322136,0.46311 -10.996095,0.58789 -0.06054,0.002 -0.121105,0.002 -0.181641,0.004 v 27.30273 c 1.808045,0.19597 3.614582,0.39877 5.414063,0.64063 2.218883,0.29822 4.431761,0.62987 6.638673,0.99218 2.20691,0.36232 4.40742,0.75367 6.60351,1.17383 2.1961,0.42016 4.38778,0.86809 6.57422,1.33985 2.18645,0.47175 4.36892,0.96728 6.54688,1.48437 2.17795,0.51709 4.35086,1.05516 6.52148,1.61133 4.34124,1.11233 8.66942,2.29816 12.98828,3.5293 4.31887,1.23113 8.62979,2.50868 12.93555,3.80859 4.30576,1.29991 8.60626,2.62081 12.9082,3.93945 4.30194,1.31865 8.60472,2.63453 12.91211,3.92188 4.3074,1.28735 8.61929,2.54592 12.94141,3.75195 4.76412,1.32936 9.53801,2.5952 14.32031,3.79687 4.7823,1.20168 9.57347,2.33975 14.37305,3.41797 4.79958,1.07823 9.60785,2.09567 14.42383,3.05469 4.81597,0.95902 9.63923,1.85907 14.4707,2.70313 4.83147,0.84406 9.6715,1.63189 14.51758,2.36523 4.84608,0.73334 9.6988,1.4122 14.55859,2.03906 4.85979,0.62687 9.727,1.20194 14.59961,1.72657 4.87261,0.52462 9.75023,0.99914 14.63477,1.42578 4.88454,0.42663 9.77435,0.80579 14.66992,1.13867 4.89557,0.33288 9.79741,0.61991 14.70312,0.86328 4.90572,0.24337 9.81551,0.44346 14.73047,0.60156 4.91496,0.15811 9.8345,0.27449 14.75782,0.35156 4.92331,0.0771 9.85047,0.11495 14.78124,0.11524 4.93078,2.9e-4 9.86539,-0.0371 14.80274,-0.10938 4.93734,-0.0722 9.87729,-0.17976 14.82031,-0.32031 4.94302,-0.14055 9.89009,-0.31492 14.83789,-0.51953 4.94781,-0.2046 9.89792,-0.4387 14.84961,-0.70312 4.95169,-0.26443 9.90469,-0.55892 14.85938,-0.87891 4.95469,-0.32 9.91039,-0.66578 14.86718,-1.03711 4.9568,-0.37133 9.91505,-0.76713 14.87305,-1.18555 4.958,-0.41841 9.91473,-0.85905 14.87305,-1.32031 4.95832,-0.46126 9.91725,-0.94349 14.875,-1.44336 9.91549,-0.99974 19.8285,-2.07246 29.73633,-3.20117 9.90782,-1.12871 19.8101,-2.31337 29.70312,-3.53711 9.89302,-1.22374 19.77737,-2.48664 29.64844,-3.77148 19.74214,-2.56969 39.43344,-5.22744 59.04492,-7.8379 3.98156,-0.52998 7.97929,-1.06396 11.98047,-1.62304 4.00118,-0.55908 8.00555,-1.14326 12.00195,-1.77735 3.99641,-0.63408 7.98394,-1.31727 11.95117,-2.07226 1.98362,-0.37749 3.96185,-0.77313 5.9336,-1.18945 1.97174,-0.41633 3.9377,-0.85356 5.89453,-1.31446 1.33025,-0.31332 2.65048,-0.65409 3.97266,-0.99023 z"
         transform="scale(0.26458333)" />
      <path
         id="path117665"
         style="opacity:1;fill:#000000;fill-opacity:1;stroke-width:1.88976;filter:url(#filter117685)"
         d="m 88.990234,534.27539 v 141.11523 c 2.88179,-1.29941 5.765498,-2.59391 8.664063,-3.85546 3.631083,-1.58038 7.275103,-3.1318 10.931643,-4.65235 3.65653,-1.52055 7.3268,-3.01042 11.00781,-4.4707 3.68101,-1.46028 7.37362,-2.88949 11.07813,-4.28906 3.70449,-1.39958 7.4214,-2.76901 11.14843,-4.10743 3.72704,-1.3384 7.46431,-2.647 11.21289,-3.92382 3.74859,-1.27682 7.50819,-2.52155 11.27735,-3.73633 3.76915,-1.21478 7.54718,-2.39849 11.33593,-3.55078 5.35851,-1.62971 10.74702,-3.19627 16.16016,-4.69336 5.41314,-1.49709 10.85194,-2.92605 16.3125,-4.28125 2.73028,-0.67761 5.46625,-1.33617 8.20703,-1.97656 2.74079,-0.6404 5.48595,-1.26126 8.23633,-1.86329 2.75038,-0.60203 5.50459,-1.18554 8.26367,-1.74804 2.75908,-0.56251 5.52219,-1.10513 8.28906,-1.62696 2.76688,-0.52182 5.53874,-1.02197 8.3125,-1.50195 2.77377,-0.47998 5.55033,-0.93997 8.33008,-1.37695 2.77975,-0.43699 5.56282,-0.85131 8.34766,-1.24414 2.78484,-0.39283 5.57231,-0.76382 8.36133,-1.11133 2.78902,-0.34752 5.57879,-0.67161 8.37109,-0.97266 2.7923,-0.30104 5.58618,-0.57862 8.38086,-0.83203 2.79468,-0.25341 5.59057,-0.48288 8.38672,-0.6875 2.79615,-0.20462 5.59194,-0.38438 8.38867,-0.53906 2.79673,-0.15468 5.59423,-0.2851 8.39063,-0.38867 2.79639,-0.10357 5.59155,-0.18112 8.38671,-0.23242 2.79517,-0.0513 5.58979,-0.0763 8.38282,-0.0742 2.79303,0.002 5.58501,0.0312 8.375,0.0879 2.78999,0.0567 5.57918,0.14147 8.36523,0.2539 2.78605,0.11243 5.5684,0.25255 8.34961,0.42188 2.78121,0.16932 5.56048,0.36832 8.33594,0.5957 2.77546,0.22738 5.54759,0.48294 8.3164,0.76953 2.76882,0.28659 5.53366,0.60422 8.29493,0.95118 2.76126,0.34694 5.51867,0.72432 8.27148,1.13281 2.75281,0.40848 5.50264,0.84718 8.24609,1.31836 2.74346,0.47117 5.48165,0.97475 8.21485,1.50976 2.73319,0.53502 5.45961,1.10311 8.18164,1.70313 2.72203,0.60002 5.43847,1.23226 8.14844,1.89844 2.70997,0.66616 5.41432,1.36611 8.11132,2.0996 2.69701,0.7335 5.38718,1.50077 8.07032,2.30274 2.15226,0.6433 4.29613,1.30611 6.43164,1.99023 2.1355,0.68413 4.26354,1.38977 6.38281,2.11328 2.11927,0.72352 4.23043,1.46509 6.33398,2.22657 2.10355,0.76147 4.19876,1.54184 6.28711,2.33984 4.17671,1.59601 8.32434,3.26452 12.44336,4.99805 4.11903,1.73352 8.20989,3.533 12.27539,5.39258 4.06551,1.85957 8.10496,3.77778 12.1211,5.75195 4.01613,1.97417 8.00759,4.00277 11.97851,6.08008 3.97093,2.0773 7.9217,4.20407 11.85157,6.37304 3.92986,2.16898 7.83945,4.38168 11.73242,6.63086 3.89296,2.24919 7.76869,4.53559 11.6289,6.85352 3.86022,2.31793 7.70549,4.66579 11.53711,7.04101 3.83163,2.37523 7.64985,4.77622 11.45703,7.19727 3.80719,2.42105 7.60373,4.86294 11.39063,7.31836 7.57381,4.91083 15.1113,9.87984 22.62891,14.85937 7.5176,4.97953 15.01512,9.96924 22.50976,14.92579 4.12484,2.72793 8.25616,5.45029 12.40039,8.15625 4.14423,2.70595 8.30049,5.39599 12.47266,8.06054 4.17217,2.66455 8.36166,5.30254 12.57031,7.90625 4.20865,2.60372 8.43773,5.17381 12.69141,7.69727 0.85436,0.50684 1.72173,0.98905 2.57812,1.49219 3.40737,2.00185 6.81764,3.99665 10.25977,5.93359 4.30724,2.42376 8.64431,4.79106 13.01367,7.0957 2.18468,1.15232 4.37631,2.28931 6.57812,3.40821 1.01267,0.5146 2.03433,1.01236 3.05079,1.51953 V 783.4375 549.23633 c -1.32218,0.33614 -2.64241,0.67691 -3.97266,0.99023 -1.95683,0.4609 -3.92279,0.89813 -5.89453,1.31446 -1.97175,0.41632 -3.94998,0.81196 -5.9336,1.18945 -3.96723,0.75499 -7.95476,1.43818 -11.95117,2.07226 -3.9964,0.63409 -8.00077,1.21827 -12.00195,1.77735 -4.00118,0.55908 -7.99891,1.09307 -11.98047,1.62304 -19.61148,2.61046 -39.30278,5.26821 -59.04492,7.8379 -9.87107,1.28484 -19.75542,2.54774 -29.64844,3.77148 -9.89302,1.22374 -19.7953,2.4084 -29.70312,3.53711 -9.90783,1.12871 -19.82084,2.20143 -29.73633,3.20117 -4.95775,0.49987 -9.91668,0.9821 -14.875,1.44336 -4.95832,0.46126 -9.91505,0.9019 -14.87305,1.32031 -4.958,0.41842 -9.91625,0.81422 -14.87305,1.18555 -4.95679,0.37133 -9.91249,0.71711 -14.86718,1.03711 -4.95469,0.31999 -9.90769,0.61448 -14.85938,0.87891 -4.95169,0.26442 -9.9018,0.49852 -14.84961,0.70312 -4.9478,0.20461 -9.89487,0.37898 -14.83789,0.51953 -4.94302,0.14055 -9.88297,0.24807 -14.82031,0.32031 -4.93735,0.0723 -9.87196,0.10967 -14.80274,0.10938 -4.93076,-2.9e-4 -9.85794,-0.0382 -14.78124,-0.11524 -4.92332,-0.0771 -9.84286,-0.19345 -14.75782,-0.35156 -4.91496,-0.1581 -9.82475,-0.35819 -14.73047,-0.60156 -4.90571,-0.24337 -9.80755,-0.5304 -14.70312,-0.86328 -4.89557,-0.33288 -9.78538,-0.71204 -14.66992,-1.13867 -4.88454,-0.42664 -9.76216,-0.90116 -14.63477,-1.42578 -4.87261,-0.52463 -9.73982,-1.0997 -14.59961,-1.72657 -4.85979,-0.62686 -9.71251,-1.30572 -14.55859,-2.03906 -4.84608,-0.73334 -9.68611,-1.52117 -14.51758,-2.36523 -4.83147,-0.84406 -9.65473,-1.74411 -14.4707,-2.70313 -4.81598,-0.95902 -9.62425,-1.97646 -14.42383,-3.05469 -4.79958,-1.07822 -9.59075,-2.21629 -14.37305,-3.41797 -4.7823,-1.20166 -9.55619,-2.46751 -14.32031,-3.79687 -4.32212,-1.20603 -8.63401,-2.4646 -12.94141,-3.75195 -4.30739,-1.28735 -8.61017,-2.60323 -12.91211,-3.92188 -4.30194,-1.31864 -8.60244,-2.63954 -12.9082,-3.93945 -4.30576,-1.29991 -8.61668,-2.57747 -12.93555,-3.80859 -4.31886,-1.23114 -8.64704,-2.41697 -12.98828,-3.5293 -2.17062,-0.55617 -4.34353,-1.09424 -6.52148,-1.61133 -2.17796,-0.51709 -4.36043,-1.01263 -6.54688,-1.48437 -2.18644,-0.47176 -4.37812,-0.91969 -6.57422,-1.33985 -2.19609,-0.42016 -4.3966,-0.81151 -6.60351,-1.17383 -2.206913,-0.36231 -4.41979,-0.69396 -6.638673,-0.99218 -1.799481,-0.24186 -3.606018,-0.44466 -5.414063,-0.64063 z"
         transform="scale(0.26458333)" />
      <path
         id="path72857"
         style="opacity:1;fill:#b8f2e6;fill-opacity:1;stroke-width:1.88976"
         d="m 88.990234,534.27539 v 141.11523 c 2.88179,-1.29941 5.765498,-2.59391 8.664063,-3.85546 3.631083,-1.58038 7.275103,-3.1318 10.931643,-4.65235 3.65653,-1.52055 7.3268,-3.01042 11.00781,-4.4707 3.68101,-1.46028 7.37362,-2.88949 11.07813,-4.28906 3.70449,-1.39958 7.4214,-2.76901 11.14843,-4.10743 3.72704,-1.3384 7.46431,-2.647 11.21289,-3.92382 3.74859,-1.27682 7.50819,-2.52155 11.27735,-3.73633 3.76915,-1.21478 7.54718,-2.39849 11.33593,-3.55078 5.35851,-1.62971 10.74702,-3.19627 16.16016,-4.69336 5.41314,-1.49709 10.85194,-2.92605 16.3125,-4.28125 2.73028,-0.67761 5.46625,-1.33617 8.20703,-1.97656 2.74079,-0.6404 5.48595,-1.26126 8.23633,-1.86329 2.75038,-0.60203 5.50459,-1.18554 8.26367,-1.74804 2.75908,-0.56251 5.52219,-1.10513 8.28906,-1.62696 2.76688,-0.52182 5.53874,-1.02197 8.3125,-1.50195 2.77377,-0.47998 5.55033,-0.93997 8.33008,-1.37695 2.77975,-0.43699 5.56282,-0.85131 8.34766,-1.24414 2.78484,-0.39283 5.57231,-0.76382 8.36133,-1.11133 2.78902,-0.34752 5.57879,-0.67161 8.37109,-0.97266 2.7923,-0.30104 5.58618,-0.57862 8.38086,-0.83203 2.79468,-0.25341 5.59057,-0.48288 8.38672,-0.6875 2.79615,-0.20462 5.59194,-0.38438 8.38867,-0.53906 2.79673,-0.15468 5.59423,-0.2851 8.39063,-0.38867 2.79639,-0.10357 5.59155,-0.18112 8.38671,-0.23242 2.79517,-0.0513 5.58979,-0.0763 8.38282,-0.0742 2.79303,0.002 5.58501,0.0312 8.375,0.0879 2.78999,0.0567 5.57918,0.14147 8.36523,0.2539 2.78605,0.11243 5.5684,0.25255 8.34961,0.42188 2.78121,0.16932 5.56048,0.36832 8.33594,0.5957 2.77546,0.22738 5.54759,0.48294 8.3164,0.76953 2.76882,0.28659 5.53366,0.60422 8.29493,0.95118 2.76126,0.34694 5.51867,0.72432 8.27148,1.13281 2.75281,0.40848 5.50264,0.84718 8.24609,1.31836 2.74346,0.47117 5.48165,0.97475 8.21485,1.50976 2.73319,0.53502 5.45961,1.10311 8.18164,1.70313 2.72203,0.60002 5.43847,1.23226 8.14844,1.89844 2.70997,0.66616 5.41432,1.36611 8.11132,2.0996 2.69701,0.7335 5.38718,1.50077 8.07032,2.30274 2.15226,0.6433 4.29613,1.30611 6.43164,1.99023 2.1355,0.68413 4.26354,1.38977 6.38281,2.11328 2.11927,0.72352 4.23043,1.46509 6.33398,2.22657 2.10355,0.76147 4.19876,1.54184 6.28711,2.33984 4.17671,1.59601 8.32434,3.26452 12.44336,4.99805 4.11903,1.73352 8.20989,3.533 12.27539,5.39258 4.06551,1.85957 8.10496,3.77778 12.1211,5.75195 4.01613,1.97417 8.00759,4.00277 11.97851,6.08008 3.97093,2.0773 7.9217,4.20407 11.85157,6.37304 3.92986,2.16898 7.83945,4.38168 11.73242,6.63086 3.89296,2.24919 7.76869,4.53559 11.6289,6.85352 3.86022,2.31793 7.70549,4.66579 11.53711,7.04101 3.83163,2.37523 7.64985,4.77622 11.45703,7.19727 3.80719,2.42105 7.60373,4.86294 11.39063,7.31836 7.57381,4.91083 15.1113,9.87984 22.62891,14.85937 7.5176,4.97953 15.01512,9.96924 22.50976,14.92579 4.12484,2.72793 8.25616,5.45029 12.40039,8.15625 4.14423,2.70595 8.30049,5.39599 12.47266,8.06054 4.17217,2.66455 8.36166,5.30254 12.57031,7.90625 4.20865,2.60372 8.43773,5.17381 12.69141,7.69727 0.85436,0.50684 1.72173,0.98905 2.57812,1.49219 3.40737,2.00185 6.81764,3.99665 10.25977,5.93359 4.30724,2.42376 8.64431,4.79106 13.01367,7.0957 2.18468,1.15232 4.37631,2.28931 6.57812,3.40821 1.01267,0.5146 2.03433,1.01236 3.05079,1.51953 V 783.4375 549.23633 c -1.32218,0.33614 -2.64241,0.67691 -3.97266,0.99023 -1.95683,0.4609 -3.92279,0.89813 -5.89453,1.31446 -1.97175,0.41632 -3.94998,0.81196 -5.9336,1.18945 -3.96723,0.75499 -7.95476,1.43818 -11.95117,2.07226 -3.9964,0.63409 -8.00077,1.21827 -12.00195,1.77735 -4.00118,0.55908 -7.99891,1.09307 -11.98047,1.62304 -19.61148,2.61046 -39.30278,5.26821 -59.04492,7.8379 -9.87107,1.28484 -19.75542,2.54774 -29.64844,3.77148 -9.89302,1.22374 -19.7953,2.4084 -29.70312,3.53711 -9.90783,1.12871 -19.82084,2.20143 -29.73633,3.20117 -4.95775,0.49987 -9.91668,0.9821 -14.875,1.44336 -4.95832,0.46126 -9.91505,0.9019 -14.87305,1.32031 -4.958,0.41842 -9.91625,0.81422 -14.87305,1.18555 -4.95679,0.37133 -9.91249,0.71711 -14.86718,1.03711 -4.95469,0.31999 -9.90769,0.61448 -14.85938,0.87891 -4.95169,0.26442 -9.9018,0.49852 -14.84961,0.70312 -4.9478,0.20461 -9.89487,0.37898 -14.83789,0.51953 -4.94302,0.14055 -9.88297,0.24807 -14.82031,0.32031 -4.93735,0.0723 -9.87196,0.10967 -14.80274,0.10938 -4.93076,-2.9e-4 -9.85794,-0.0382 -14.78124,-0.11524 -4.92332,-0.0771 -9.84286,-0.19345 -14.75782,-0.35156 -4.91496,-0.1581 -9.82475,-0.35819 -14.73047,-0.60156 -4.90571,-0.24337 -9.80755,-0.5304 -14.70312,-0.86328 -4.89557,-0.33288 -9.78538,-0.71204 -14.66992,-1.13867 -4.88454,-0.42664 -9.76216,-0.90116 -14.63477,-1.42578 -4.87261,-0.52463 -9.73982,-1.0997 -14.59961,-1.72657 -4.85979,-0.62686 -9.71251,-1.30572 -14.55859,-2.03906 -4.84608,-0.73334 -9.68611,-1.52117 -14.51758,-2.36523 -4.83147,-0.84406 -9.65473,-1.74411 -14.4707,-2.70313 -4.81598,-0.95902 -9.62425,-1.97646 -14.42383,-3.05469 -4.79958,-1.07822 -9.59075,-2.21629 -14.37305,-3.41797 -4.7823,-1.20166 -9.55619,-2.46751 -14.32031,-3.79687 -4.32212,-1.20603 -8.63401,-2.4646 -12.94141,-3.75195 -4.30739,-1.28735 -8.61017,-2.60323 -12.91211,-3.92188 -4.30194,-1.31864 -8.60244,-2.63954 -12.9082,-3.93945 -4.30576,-1.29991 -8.61668,-2.57747 -12.93555,-3.80859 -4.31886,-1.23114 -8.64704,-2.41697 -12.98828,-3.5293 -2.17062,-0.55617 -4.34353,-1.09424 -6.52148,-1.61133 -2.17796,-0.51709 -4.36043,-1.01263 -6.54688,-1.48437 -2.18644,-0.47176 -4.37812,-0.91969 -6.57422,-1.33985 -2.19609,-0.42016 -4.3966,-0.81151 -6.60351,-1.17383 -2.206913,-0.36231 -4.41979,-0.69396 -6.638673,-0.99218 -1.799481,-0.24186 -3.606018,-0.44466 -5.414063,-0.64063 z"
         transform="scale(0.26458333)" />
      <path
         id="path117641"
         style="opacity:1;fill:#000000;fill-opacity:1;stroke-width:1.88976;filter:url(#filter117661)"
         d="m 88.990234,873.73047 c 1.922368,0.18131 3.843382,0.37956 5.769532,0.51367 3.056189,0.21279 6.115784,0.36769 9.177734,0.46094 3.06195,0.0933 6.12635,0.12676 9.18945,0.0996 3.0631,-0.0272 6.12396,-0.11525 9.1836,-0.26367 3.05963,-0.14843 6.11641,-0.35835 9.16797,-0.62891 3.05155,-0.27056 6.09785,-0.60253 9.13671,-0.99609 1.91197,-0.24763 3.8183,-0.51751 5.71875,-0.81055 1.90046,-0.29304 3.79637,-0.60832 5.68555,-0.94531 1.88918,-0.337 3.77224,-0.69668 5.65039,-1.07618 1.87815,-0.37949 3.75179,-0.77867 5.61914,-1.19921 1.86735,-0.42054 3.72915,-0.86215 5.58594,-1.32227 1.85679,-0.46012 3.70822,-0.93925 5.55469,-1.4375 3.69294,-0.99649 7.36448,-2.06875 11.01758,-3.20898 3.65309,-1.14024 7.28719,-2.3488 10.90234,-3.6211 3.61515,-1.2723 7.2119,-2.6073 10.79101,-4 3.57912,-1.3927 7.14057,-2.84232 10.68555,-4.34375 3.54499,-1.50143 7.07318,-3.05581 10.58594,-4.65429 3.51276,-1.59849 7.00974,-3.24192 10.49219,-4.92579 3.48244,-1.68387 6.95025,-3.40647 10.40429,-5.16406 3.45404,-1.75758 6.89473,-3.54951 10.32227,-5.36914 3.42754,-1.81963 6.84315,-3.6671 10.24609,-5.53711 3.40295,-1.87 6.79357,-3.76317 10.17383,-5.67187 3.38026,-1.90871 6.7499,-3.8338 10.10938,-5.76953 6.71895,-3.87148 13.39764,-7.78574 20.04492,-11.69532 6.64727,-3.90958 13.31744,-7.83426 20.01953,-11.72851 6.70208,-3.89426 13.437,-7.75832 20.21289,-11.54493 3.38794,-1.8933 6.78536,-3.76615 10.19531,-5.61523 3.40996,-1.84908 6.83129,-3.67348 10.26563,-5.4668 3.43434,-1.79331 6.88265,-3.55524 10.34375,-5.28125 3.4611,-1.72601 6.93555,-3.41533 10.42578,-5.0625 3.49023,-1.64716 6.99584,-3.25376 10.51758,-4.81054 3.52174,-1.55678 7.05961,-3.06468 10.61523,-4.51953 3.55562,-1.45486 7.12883,-2.85588 10.7207,-4.19727 3.59188,-1.34139 7.20153,-2.62347 10.83204,-3.83984 3.6305,-1.21638 7.28161,-2.36744 10.95312,-3.44727 1.83575,-0.53991 3.67699,-1.06084 5.52344,-1.56445 1.84645,-0.50362 3.69724,-0.98921 5.55469,-1.45508 1.85744,-0.46587 3.72111,-0.91316 5.58984,-1.33984 1.86873,-0.42669 3.74273,-0.8327 5.62305,-1.21875 1.88031,-0.38606 3.76795,-0.75172 5.66015,-1.09571 1.8922,-0.34398 3.78898,-0.66632 5.69336,-0.96679 3.15332,-0.49753 6.31402,-0.93208 9.47852,-1.30469 3.16449,-0.37262 6.33287,-0.68422 9.50586,-0.93555 3.17298,-0.25133 6.35051,-0.44249 9.52929,-0.57617 3.17878,-0.13368 6.35913,-0.20886 9.54102,-0.22852 3.18189,-0.0197 6.36457,0.0167 9.54687,0.10743 3.18231,0.0907 6.3649,0.2361 9.54493,0.43359 3.18002,0.19749 6.35814,0.44743 9.5332,0.74805 3.17506,0.30061 6.34626,0.65067 9.51367,1.05078 3.16741,0.40011 6.33122,0.84972 9.48828,1.3457 3.15706,0.49598 6.30715,1.03874 9.45117,1.62695 3.14403,0.58822 6.28186,1.22163 9.41016,1.89844 3.1283,0.67682 6.24754,1.39642 9.35742,2.1582 3.10989,0.76179 6.21005,1.56508 9.29883,2.40821 3.08878,0.84312 6.16549,1.7276 9.23047,2.64843 3.06498,0.92084 6.11776,1.87814 9.15625,2.87305 3.03849,0.99492 6.06295,2.02644 9.07227,3.0918 2.39721,0.84867 4.78708,1.71833 7.16796,2.60742 2.38089,0.88909 4.75304,1.79697 7.11914,2.72266 4.73222,1.85137 9.43673,3.77324 14.11914,5.74804 4.68242,1.97481 9.34324,4.00269 13.98829,6.07032 3.38824,1.50819 6.76068,3.05611 10.13476,4.59961 -0.85639,-0.50314 -1.72376,-0.98535 -2.57812,-1.49219 -4.25368,-2.52346 -8.48276,-5.09355 -12.69141,-7.69727 -4.20865,-2.60371 -8.39814,-5.2417 -12.57031,-7.90625 -4.17217,-2.66455 -8.32843,-5.35459 -12.47266,-8.06054 -4.14423,-2.70596 -8.27555,-5.42832 -12.40039,-8.15625 -7.49464,-4.95655 -14.99216,-9.94626 -22.50976,-14.92579 -7.51761,-4.97953 -15.0551,-9.94854 -22.62891,-14.85937 -3.7869,-2.45542 -7.58344,-4.89731 -11.39063,-7.31836 -3.80718,-2.42105 -7.6254,-4.82204 -11.45703,-7.19727 -3.83162,-2.37522 -7.67689,-4.72308 -11.53711,-7.04101 -3.86021,-2.31793 -7.73594,-4.60433 -11.6289,-6.85352 -3.89297,-2.24918 -7.80256,-4.46188 -11.73242,-6.63086 -3.92987,-2.16897 -7.88064,-4.29574 -11.85157,-6.37304 -3.97092,-2.07731 -7.96238,-4.10591 -11.97851,-6.08008 -4.01614,-1.97417 -8.05559,-3.89238 -12.1211,-5.75195 -4.0655,-1.85958 -8.15636,-3.65906 -12.27539,-5.39258 -4.11902,-1.73353 -8.26665,-3.40204 -12.44336,-4.99805 -2.08835,-0.798 -4.18356,-1.57837 -6.28711,-2.33984 -2.10355,-0.76148 -4.21471,-1.50305 -6.33398,-2.22657 -2.11927,-0.72351 -4.24731,-1.42915 -6.38281,-2.11328 -2.13551,-0.68412 -4.27938,-1.34693 -6.43164,-1.99023 -2.68314,-0.80197 -5.37331,-1.56924 -8.07032,-2.30274 -2.697,-0.73349 -5.40135,-1.43343 -8.11132,-2.0996 -2.70997,-0.66618 -5.42641,-1.29842 -8.14844,-1.89844 -2.72203,-0.60002 -5.44845,-1.16811 -8.18164,-1.70313 -2.7332,-0.53501 -5.47139,-1.03859 -8.21485,-1.50976 -2.74345,-0.47118 -5.49328,-0.90988 -8.24609,-1.31836 -2.75281,-0.40849 -5.51022,-0.78586 -8.27148,-1.13281 -2.76127,-0.34696 -5.52611,-0.66459 -8.29493,-0.95118 -2.76881,-0.28659 -5.54094,-0.54215 -8.3164,-0.76953 -2.77546,-0.22738 -5.55473,-0.42638 -8.33594,-0.5957 -2.78121,-0.16933 -5.56356,-0.30945 -8.34961,-0.42188 -2.78605,-0.11243 -5.57524,-0.19721 -8.36523,-0.2539 -2.78999,-0.0567 -5.58197,-0.0858 -8.375,-0.0879 -2.79303,-0.002 -5.58765,0.0229 -8.38282,0.0742 -2.79516,0.0513 -5.59032,0.12885 -8.38671,0.23242 -2.7964,0.10357 -5.5939,0.23399 -8.39063,0.38867 -2.79673,0.15468 -5.59252,0.33444 -8.38867,0.53906 -2.79615,0.20462 -5.59204,0.43409 -8.38672,0.6875 -2.79468,0.25341 -5.58856,0.53099 -8.38086,0.83203 -2.7923,0.30105 -5.58207,0.62514 -8.37109,0.97266 -2.78902,0.34751 -5.57649,0.7185 -8.36133,1.11133 -2.78484,0.39283 -5.56791,0.80715 -8.34766,1.24414 -2.77975,0.43698 -5.55631,0.89697 -8.33008,1.37695 -2.77376,0.47998 -5.54562,0.98013 -8.3125,1.50195 -2.76687,0.52183 -5.52998,1.06445 -8.28906,1.62696 -2.75908,0.5625 -5.51329,1.14601 -8.26367,1.74804 -2.75038,0.60203 -5.49554,1.22289 -8.23633,1.86329 -2.74078,0.64039 -5.47675,1.29895 -8.20703,1.97656 -5.46056,1.3552 -10.89936,2.78416 -16.3125,4.28125 -5.41314,1.49709 -10.80165,3.06365 -16.16016,4.69336 -3.78875,1.15229 -7.56678,2.336 -11.33593,3.55078 -3.76916,1.21478 -7.52876,2.45951 -11.27735,3.73633 -3.74858,1.27682 -7.48585,2.58541 -11.21289,3.92382 -3.72703,1.33842 -7.44393,2.70785 -11.14843,4.10743 -3.70451,1.39957 -7.39712,2.82878 -11.07813,4.28906 -3.68101,1.46028 -7.35128,2.95015 -11.00781,4.4707 -3.65654,1.52055 -7.30056,3.07197 -10.931643,4.65235 -2.898565,1.26155 -5.782273,2.55604 -8.664063,3.85546 z"
         transform="scale(0.26458333)" />
      <path
         id="path72861"
         style="opacity:1;fill:#faf3dd;fill-opacity:1;stroke-width:1.88976"
         d="m 88.990234,873.73047 c 1.922368,0.18131 3.843382,0.37956 5.769532,0.51367 3.056189,0.21279 6.115784,0.36769 9.177734,0.46094 3.06195,0.0933 6.12635,0.12676 9.18945,0.0996 3.0631,-0.0272 6.12396,-0.11525 9.1836,-0.26367 3.05963,-0.14843 6.11641,-0.35835 9.16797,-0.62891 3.05155,-0.27056 6.09785,-0.60253 9.13671,-0.99609 1.91197,-0.24763 3.8183,-0.51751 5.71875,-0.81055 1.90046,-0.29304 3.79637,-0.60832 5.68555,-0.94531 1.88918,-0.337 3.77224,-0.69668 5.65039,-1.07618 1.87815,-0.37949 3.75179,-0.77867 5.61914,-1.19921 1.86735,-0.42054 3.72915,-0.86215 5.58594,-1.32227 1.85679,-0.46012 3.70822,-0.93925 5.55469,-1.4375 3.69294,-0.99649 7.36448,-2.06875 11.01758,-3.20898 3.65309,-1.14024 7.28719,-2.3488 10.90234,-3.6211 3.61515,-1.2723 7.2119,-2.6073 10.79101,-4 3.57912,-1.3927 7.14057,-2.84232 10.68555,-4.34375 3.54499,-1.50143 7.07318,-3.05581 10.58594,-4.65429 3.51276,-1.59849 7.00974,-3.24192 10.49219,-4.92579 3.48244,-1.68387 6.95025,-3.40647 10.40429,-5.16406 3.45404,-1.75758 6.89473,-3.54951 10.32227,-5.36914 3.42754,-1.81963 6.84315,-3.6671 10.24609,-5.53711 3.40295,-1.87 6.79357,-3.76317 10.17383,-5.67187 3.38026,-1.90871 6.7499,-3.8338 10.10938,-5.76953 6.71895,-3.87148 13.39764,-7.78574 20.04492,-11.69532 6.64727,-3.90958 13.31744,-7.83426 20.01953,-11.72851 6.70208,-3.89426 13.437,-7.75832 20.21289,-11.54493 3.38794,-1.8933 6.78536,-3.76615 10.19531,-5.61523 3.40996,-1.84908 6.83129,-3.67348 10.26563,-5.4668 3.43434,-1.79331 6.88265,-3.55524 10.34375,-5.28125 3.4611,-1.72601 6.93555,-3.41533 10.42578,-5.0625 3.49023,-1.64716 6.99584,-3.25376 10.51758,-4.81054 3.52174,-1.55678 7.05961,-3.06468 10.61523,-4.51953 3.55562,-1.45486 7.12883,-2.85588 10.7207,-4.19727 3.59188,-1.34139 7.20153,-2.62347 10.83204,-3.83984 3.6305,-1.21638 7.28161,-2.36744 10.95312,-3.44727 1.83575,-0.53991 3.67699,-1.06084 5.52344,-1.56445 1.84645,-0.50362 3.69724,-0.98921 5.55469,-1.45508 1.85744,-0.46587 3.72111,-0.91316 5.58984,-1.33984 1.86873,-0.42669 3.74273,-0.8327 5.62305,-1.21875 1.88031,-0.38606 3.76795,-0.75172 5.66015,-1.09571 1.8922,-0.34398 3.78898,-0.66632 5.69336,-0.96679 3.15332,-0.49753 6.31402,-0.93208 9.47852,-1.30469 3.16449,-0.37262 6.33287,-0.68422 9.50586,-0.93555 3.17298,-0.25133 6.35051,-0.44249 9.52929,-0.57617 3.17878,-0.13368 6.35913,-0.20886 9.54102,-0.22852 3.18189,-0.0197 6.36457,0.0167 9.54687,0.10743 3.18231,0.0907 6.3649,0.2361 9.54493,0.43359 3.18002,0.19749 6.35814,0.44743 9.5332,0.74805 3.17506,0.30061 6.34626,0.65067 9.51367,1.05078 3.16741,0.40011 6.33122,0.84972 9.48828,1.3457 3.15706,0.49598 6.30715,1.03874 9.45117,1.62695 3.14403,0.58822 6.28186,1.22163 9.41016,1.89844 3.1283,0.67682 6.24754,1.39642 9.35742,2.1582 3.10989,0.76179 6.21005,1.56508 9.29883,2.40821 3.08878,0.84312 6.16549,1.7276 9.23047,2.64843 3.06498,0.92084 6.11776,1.87814 9.15625,2.87305 3.03849,0.99492 6.06295,2.02644 9.07227,3.0918 2.39721,0.84867 4.78708,1.71833 7.16796,2.60742 2.38089,0.88909 4.75304,1.79697 7.11914,2.72266 4.73222,1.85137 9.43673,3.77324 14.11914,5.74804 4.68242,1.97481 9.34324,4.00269 13.98829,6.07032 3.38824,1.50819 6.76068,3.05611 10.13476,4.59961 -0.85639,-0.50314 -1.72376,-0.98535 -2.57812,-1.49219 -4.25368,-2.52346 -8.48276,-5.09355 -12.69141,-7.69727 -4.20865,-2.60371 -8.39814,-5.2417 -12.57031,-7.90625 -4.17217,-2.66455 -8.32843,-5.35459 -12.47266,-8.06054 -4.14423,-2.70596 -8.27555,-5.42832 -12.40039,-8.15625 -7.49464,-4.95655 -14.99216,-9.94626 -22.50976,-14.92579 -7.51761,-4.97953 -15.0551,-9.94854 -22.62891,-14.85937 -3.7869,-2.45542 -7.58344,-4.89731 -11.39063,-7.31836 -3.80718,-2.42105 -7.6254,-4.82204 -11.45703,-7.19727 -3.83162,-2.37522 -7.67689,-4.72308 -11.53711,-7.04101 -3.86021,-2.31793 -7.73594,-4.60433 -11.6289,-6.85352 -3.89297,-2.24918 -7.80256,-4.46188 -11.73242,-6.63086 -3.92987,-2.16897 -7.88064,-4.29574 -11.85157,-6.37304 -3.97092,-2.07731 -7.96238,-4.10591 -11.97851,-6.08008 -4.01614,-1.97417 -8.05559,-3.89238 -12.1211,-5.75195 -4.0655,-1.85958 -8.15636,-3.65906 -12.27539,-5.39258 -4.11902,-1.73353 -8.26665,-3.40204 -12.44336,-4.99805 -2.08835,-0.798 -4.18356,-1.57837 -6.28711,-2.33984 -2.10355,-0.76148 -4.21471,-1.50305 -6.33398,-2.22657 -2.11927,-0.72351 -4.24731,-1.42915 -6.38281,-2.11328 -2.13551,-0.68412 -4.27938,-1.34693 -6.43164,-1.99023 -2.68314,-0.80197 -5.37331,-1.56924 -8.07032,-2.30274 -2.697,-0.73349 -5.40135,-1.43343 -8.11132,-2.0996 -2.70997,-0.66618 -5.42641,-1.29842 -8.14844,-1.89844 -2.72203,-0.60002 -5.44845,-1.16811 -8.18164,-1.70313 -2.7332,-0.53501 -5.47139,-1.03859 -8.21485,-1.50976 -2.74345,-0.47118 -5.49328,-0.90988 -8.24609,-1.31836 -2.75281,-0.40849 -5.51022,-0.78586 -8.27148,-1.13281 -2.76127,-0.34696 -5.52611,-0.66459 -8.29493,-0.95118 -2.76881,-0.28659 -5.54094,-0.54215 -8.3164,-0.76953 -2.77546,-0.22738 -5.55473,-0.42638 -8.33594,-0.5957 -2.78121,-0.16933 -5.56356,-0.30945 -8.34961,-0.42188 -2.78605,-0.11243 -5.57524,-0.19721 -8.36523,-0.2539 -2.78999,-0.0567 -5.58197,-0.0858 -8.375,-0.0879 -2.79303,-0.002 -5.58765,0.0229 -8.38282,0.0742 -2.79516,0.0513 -5.59032,0.12885 -8.38671,0.23242 -2.7964,0.10357 -5.5939,0.23399 -8.39063,0.38867 -2.79673,0.15468 -5.59252,0.33444 -8.38867,0.53906 -2.79615,0.20462 -5.59204,0.43409 -8.38672,0.6875 -2.79468,0.25341 -5.58856,0.53099 -8.38086,0.83203 -2.7923,0.30105 -5.58207,0.62514 -8.37109,0.97266 -2.78902,0.34751 -5.57649,0.7185 -8.36133,1.11133 -2.78484,0.39283 -5.56791,0.80715 -8.34766,1.24414 -2.77975,0.43698 -5.55631,0.89697 -8.33008,1.37695 -2.77376,0.47998 -5.54562,0.98013 -8.3125,1.50195 -2.76687,0.52183 -5.52998,1.06445 -8.28906,1.62696 -2.75908,0.5625 -5.51329,1.14601 -8.26367,1.74804 -2.75038,0.60203 -5.49554,1.22289 -8.23633,1.86329 -2.74078,0.64039 -5.47675,1.29895 -8.20703,1.97656 -5.46056,1.3552 -10.89936,2.78416 -16.3125,4.28125 -5.41314,1.49709 -10.80165,3.06365 -16.16016,4.69336 -3.78875,1.15229 -7.56678,2.336 -11.33593,3.55078 -3.76916,1.21478 -7.52876,2.45951 -11.27735,3.73633 -3.74858,1.27682 -7.48585,2.58541 -11.21289,3.92382 -3.72703,1.33842 -7.44393,2.70785 -11.14843,4.10743 -3.70451,1.39957 -7.39712,2.82878 -11.07813,4.28906 -3.68101,1.46028 -7.35128,2.95015 -11.00781,4.4707 -3.65654,1.52055 -7.30056,3.07197 -10.931643,4.65235 -2.898565,1.26155 -5.782273,2.55604 -8.664063,3.85546 z"
         transform="scale(0.26458333)" />
      <path
         id="path117617"
         style="opacity:1;fill:#000000;fill-opacity:1;stroke-width:1.88976;filter:url(#filter117637)"
         d="m 715.04102,786.06055 c -1.01646,-0.50717 -2.03812,-1.00493 -3.05079,-1.51953 -2.20181,-1.1189 -4.39344,-2.25589 -6.57812,-3.40821 -4.36936,-2.30464 -8.70643,-4.67194 -13.01367,-7.0957 -3.44213,-1.93694 -6.8524,-3.93174 -10.25977,-5.93359 -3.37408,-1.5435 -6.74652,-3.09142 -10.13476,-4.59961 -4.64505,-2.06763 -9.30587,-4.09551 -13.98829,-6.07032 -4.68241,-1.9748 -9.38692,-3.89667 -14.11914,-5.74804 -2.3661,-0.92569 -4.73825,-1.83357 -7.11914,-2.72266 -2.38088,-0.88909 -4.77075,-1.75875 -7.16796,-2.60742 -3.00932,-1.06536 -6.03378,-2.09688 -9.07227,-3.0918 -3.03849,-0.99491 -6.09127,-1.95221 -9.15625,-2.87305 -3.06498,-0.92083 -6.14169,-1.80531 -9.23047,-2.64843 -3.08878,-0.84313 -6.18894,-1.64642 -9.29883,-2.40821 -3.10988,-0.76178 -6.22912,-1.48138 -9.35742,-2.1582 -3.1283,-0.67681 -6.26613,-1.31022 -9.41016,-1.89844 -3.14402,-0.58821 -6.29411,-1.13097 -9.45117,-1.62695 -3.15706,-0.49598 -6.32087,-0.94559 -9.48828,-1.3457 -3.16741,-0.40011 -6.33861,-0.75017 -9.51367,-1.05078 -3.17506,-0.30062 -6.35318,-0.55056 -9.5332,-0.74805 -3.18003,-0.19749 -6.36262,-0.34286 -9.54493,-0.43359 -3.1823,-0.0907 -6.36498,-0.12709 -9.54687,-0.10743 -3.18189,0.0197 -6.36224,0.0948 -9.54102,0.22852 -3.17878,0.13368 -6.35631,0.32484 -9.52929,0.57617 -3.17299,0.25133 -6.34137,0.56293 -9.50586,0.93555 -3.1645,0.37261 -6.3252,0.80716 -9.47852,1.30469 -1.90438,0.30047 -3.80116,0.62281 -5.69336,0.96679 -1.8922,0.34399 -3.77984,0.70965 -5.66015,1.09571 -1.88032,0.38605 -3.75432,0.79206 -5.62305,1.21875 -1.86873,0.42668 -3.7324,0.87397 -5.58984,1.33984 -1.85745,0.46587 -3.70824,0.95146 -5.55469,1.45508 -1.84645,0.50361 -3.68769,1.02454 -5.52344,1.56445 -3.67151,1.07983 -7.32262,2.23089 -10.95312,3.44727 -3.63051,1.21637 -7.24016,2.49845 -10.83204,3.83984 -3.59187,1.34139 -7.16508,2.74241 -10.7207,4.19727 -3.55562,1.45485 -7.09349,2.96275 -10.61523,4.51953 -3.52174,1.55678 -7.02735,3.16338 -10.51758,4.81054 -3.49023,1.64717 -6.96468,3.33649 -10.42578,5.0625 -3.4611,1.72601 -6.90941,3.48794 -10.34375,5.28125 -3.43434,1.79332 -6.85567,3.61772 -10.26563,5.4668 -3.40995,1.84908 -6.80737,3.72193 -10.19531,5.61523 -6.77589,3.78661 -13.51081,7.65067 -20.21289,11.54493 -6.70209,3.89425 -13.37226,7.81893 -20.01953,11.72851 -6.64728,3.90958 -13.32597,7.82384 -20.04492,11.69532 -3.35948,1.93573 -6.72912,3.86082 -10.10938,5.76953 -3.38026,1.9087 -6.77088,3.80187 -10.17383,5.67187 -3.40294,1.87001 -6.81855,3.71748 -10.24609,5.53711 -3.42754,1.81963 -6.86823,3.61156 -10.32227,5.36914 -3.45404,1.75759 -6.92185,3.48019 -10.40429,5.16406 -3.48245,1.68387 -6.97943,3.3273 -10.49219,4.92579 -3.51276,1.59848 -7.04095,3.15286 -10.58594,4.65429 -3.54498,1.50143 -7.10643,2.95105 -10.68555,4.34375 -3.57911,1.3927 -7.17586,2.7277 -10.79101,4 -3.61515,1.2723 -7.24925,2.48086 -10.90234,3.6211 -3.6531,1.14023 -7.32464,2.21249 -11.01758,3.20898 -1.84647,0.49825 -3.6979,0.97738 -5.55469,1.4375 -1.85679,0.46012 -3.71859,0.90173 -5.58594,1.32227 -1.86735,0.42054 -3.74099,0.81972 -5.61914,1.19921 -1.87815,0.3795 -3.76121,0.73918 -5.65039,1.07618 -1.88918,0.33699 -3.78509,0.65227 -5.68555,0.94531 -1.90045,0.29304 -3.80678,0.56292 -5.71875,0.81055 -3.03886,0.39356 -6.08516,0.72553 -9.13671,0.99609 -3.05156,0.27056 -6.10834,0.48048 -9.16797,0.62891 -3.05964,0.14842 -6.1205,0.23651 -9.1836,0.26367 -3.0631,0.0272 -6.1275,-0.006 -9.18945,-0.0996 -3.06195,-0.0932 -6.121545,-0.24815 -9.177734,-0.46094 -1.92615,-0.13411 -3.847164,-0.33236 -5.769532,-0.51367 v 23.97265 H 715.04102 Z"
         transform="scale(0.26458333)" />
      <path
         id="path72859"
         style="opacity:1;fill:#ffa69e;fill-opacity:1;stroke-width:1.88976"
         d="m 715.04102,786.06055 c -1.01646,-0.50717 -2.03812,-1.00493 -3.05079,-1.51953 -2.20181,-1.1189 -4.39344,-2.25589 -6.57812,-3.40821 -4.36936,-2.30464 -8.70643,-4.67194 -13.01367,-7.0957 -3.44213,-1.93694 -6.8524,-3.93174 -10.25977,-5.93359 -3.37408,-1.5435 -6.74652,-3.09142 -10.13476,-4.59961 -4.64505,-2.06763 -9.30587,-4.09551 -13.98829,-6.07032 -4.68241,-1.9748 -9.38692,-3.89667 -14.11914,-5.74804 -2.3661,-0.92569 -4.73825,-1.83357 -7.11914,-2.72266 -2.38088,-0.88909 -4.77075,-1.75875 -7.16796,-2.60742 -3.00932,-1.06536 -6.03378,-2.09688 -9.07227,-3.0918 -3.03849,-0.99491 -6.09127,-1.95221 -9.15625,-2.87305 -3.06498,-0.92083 -6.14169,-1.80531 -9.23047,-2.64843 -3.08878,-0.84313 -6.18894,-1.64642 -9.29883,-2.40821 -3.10988,-0.76178 -6.22912,-1.48138 -9.35742,-2.1582 -3.1283,-0.67681 -6.26613,-1.31022 -9.41016,-1.89844 -3.14402,-0.58821 -6.29411,-1.13097 -9.45117,-1.62695 -3.15706,-0.49598 -6.32087,-0.94559 -9.48828,-1.3457 -3.16741,-0.40011 -6.33861,-0.75017 -9.51367,-1.05078 -3.17506,-0.30062 -6.35318,-0.55056 -9.5332,-0.74805 -3.18003,-0.19749 -6.36262,-0.34286 -9.54493,-0.43359 -3.1823,-0.0907 -6.36498,-0.12709 -9.54687,-0.10743 -3.18189,0.0197 -6.36224,0.0948 -9.54102,0.22852 -3.17878,0.13368 -6.35631,0.32484 -9.52929,0.57617 -3.17299,0.25133 -6.34137,0.56293 -9.50586,0.93555 -3.1645,0.37261 -6.3252,0.80716 -9.47852,1.30469 -1.90438,0.30047 -3.80116,0.62281 -5.69336,0.96679 -1.8922,0.34399 -3.77984,0.70965 -5.66015,1.09571 -1.88032,0.38605 -3.75432,0.79206 -5.62305,1.21875 -1.86873,0.42668 -3.7324,0.87397 -5.58984,1.33984 -1.85745,0.46587 -3.70824,0.95146 -5.55469,1.45508 -1.84645,0.50361 -3.68769,1.02454 -5.52344,1.56445 -3.67151,1.07983 -7.32262,2.23089 -10.95312,3.44727 -3.63051,1.21637 -7.24016,2.49845 -10.83204,3.83984 -3.59187,1.34139 -7.16508,2.74241 -10.7207,4.19727 -3.55562,1.45485 -7.09349,2.96275 -10.61523,4.51953 -3.52174,1.55678 -7.02735,3.16338 -10.51758,4.81054 -3.49023,1.64717 -6.96468,3.33649 -10.42578,5.0625 -3.4611,1.72601 -6.90941,3.48794 -10.34375,5.28125 -3.43434,1.79332 -6.85567,3.61772 -10.26563,5.4668 -3.40995,1.84908 -6.80737,3.72193 -10.19531,5.61523 -6.77589,3.78661 -13.51081,7.65067 -20.21289,11.54493 -6.70209,3.89425 -13.37226,7.81893 -20.01953,11.72851 -6.64728,3.90958 -13.32597,7.82384 -20.04492,11.69532 -3.35948,1.93573 -6.72912,3.86082 -10.10938,5.76953 -3.38026,1.9087 -6.77088,3.80187 -10.17383,5.67187 -3.40294,1.87001 -6.81855,3.71748 -10.24609,5.53711 -3.42754,1.81963 -6.86823,3.61156 -10.32227,5.36914 -3.45404,1.75759 -6.92185,3.48019 -10.40429,5.16406 -3.48245,1.68387 -6.97943,3.3273 -10.49219,4.92579 -3.51276,1.59848 -7.04095,3.15286 -10.58594,4.65429 -3.54498,1.50143 -7.10643,2.95105 -10.68555,4.34375 -3.57911,1.3927 -7.17586,2.7277 -10.79101,4 -3.61515,1.2723 -7.24925,2.48086 -10.90234,3.6211 -3.6531,1.14023 -7.32464,2.21249 -11.01758,3.20898 -1.84647,0.49825 -3.6979,0.97738 -5.55469,1.4375 -1.85679,0.46012 -3.71859,0.90173 -5.58594,1.32227 -1.86735,0.42054 -3.74099,0.81972 -5.61914,1.19921 -1.87815,0.3795 -3.76121,0.73918 -5.65039,1.07618 -1.88918,0.33699 -3.78509,0.65227 -5.68555,0.94531 -1.90045,0.29304 -3.80678,0.56292 -5.71875,0.81055 -3.03886,0.39356 -6.08516,0.72553 -9.13671,0.99609 -3.05156,0.27056 -6.10834,0.48048 -9.16797,0.62891 -3.05964,0.14842 -6.1205,0.23651 -9.1836,0.26367 -3.0631,0.0272 -6.1275,-0.006 -9.18945,-0.0996 -3.06195,-0.0932 -6.121545,-0.24815 -9.177734,-0.46094 -1.92615,-0.13411 -3.847164,-0.33236 -5.769532,-0.51367 v 23.97265 H 715.04102 Z"
         transform="scale(0.26458333)" />
    </g>
  </g>
  <g
     inkscape:groupmode="layer"
     id="layer3"
     inkscape:label="text">
    <text
       xml:space="preserve"
       style="font-style:normal;font-variant:normal;font-weight:normal;font-stretch:normal;font-size:37.8176px;line-height:1.25;font-family:'Gill Sans Ultra Bold';-inkscape-font-specification:'Gill Sans Ultra Bold, ';fill:#ffffff;fill-opacity:1;stroke:none;stroke-width:0.945441;filter:url(#filter163091)"
       x="139.3633"
       y="32.042728"
       id="text151879"
       transform="matrix(0.8179282,0,0,0.8179282,37.130629,0.56512427)"><tspan
         sodipodi:role="line"
         style="font-style:normal;font-variant:normal;font-weight:normal;font-stretch:normal;font-size:37.8176px;font-family:'Freestyle Script';-inkscape-font-specification:'Freestyle Script, Normal';font-variant-ligatures:normal;font-variant-caps:normal;font-variant-numeric:normal;font-variant-east-asian:normal;text-align:center;text-anchor:middle;fill:#ffffff;fill-opacity:1;stroke-width:0.945441"
         x="139.3633"
         y="32.042728"
         id="tspan151877">Mrs Maddaford</tspan></text>
    <text
       xml:space="preserve"
       style="font-style:normal;font-variant:normal;font-weight:normal;font-stretch:normal;font-size:14.5561px;line-height:1.25;font-family:'Gill Sans Ultra Bold';-inkscape-font-specification:'Gill Sans Ultra Bold, ';fill:#302f4d;fill-opacity:1;stroke:none;stroke-width:0.363905;filter:url(#filter163871)"
       x="98.962204"
       y="50.445377"
       id="text69244-6"
       transform="matrix(0.8179282,0,0,0.8179282,36.95813,-4.0923671)"><tspan
         sodipodi:role="line"
         style="font-style:normal;font-variant:normal;font-weight:normal;font-stretch:normal;font-size:14.5561px;font-family:'Britannic Bold';-inkscape-font-specification:'Britannic Bold, Normal';font-variant-ligatures:normal;font-variant-caps:normal;font-variant-numeric:normal;font-variant-east-asian:normal;text-align:center;text-anchor:middle;fill:#302f4d;fill-opacity:1;stroke-width:0.363905"
         x="98.962204"
         y="50.445377"
         id="tspan69246-8">DT Portfolio</tspan></text>
  </g>
</svg>
